<svg width="184" height="74" viewBox="0 0 184 74" fill="none" xmlns="http://www.w3.org/2000/svg">
<g opacity="0.4">
<path d="M66.4388 43.0007V25.8887H63.6328V43.0007H66.4388Z" fill="white"/>
<path d="M68.1562 37.2964C68.1562 40.7924 70.5023 43.2764 74.0673 43.2764C77.6323 43.2764 79.9783 40.7924 79.9783 37.2964C79.9783 33.8004 77.6323 31.3164 74.0673 31.3164C70.5023 31.3164 68.1562 33.8004 68.1562 37.2964ZM70.9853 37.2964C70.9853 35.2494 72.2043 33.8234 74.0673 33.8234C75.9303 33.8234 77.1493 35.2494 77.1493 37.2964C77.1493 39.3204 75.9303 40.7694 74.0673 40.7694C72.2043 40.7694 70.9853 39.3204 70.9853 37.2964Z" fill="white"/>
<path d="M80.9219 37.0655C80.9219 40.3775 83.0609 42.7695 86.2579 42.7695C87.9139 42.7695 89.3399 42.1025 90.0529 40.9985V42.9305C90.0529 44.7935 88.8799 46.0355 86.9249 46.0355C85.1769 46.0355 83.9809 45.1845 83.8199 43.6895H80.9909C81.3589 46.6565 83.6359 48.5885 86.7639 48.5885C90.4439 48.5885 92.7899 46.1735 92.7899 42.4245V31.6375H90.3059L90.1449 33.1785C89.4549 31.9825 88.0289 31.2695 86.3499 31.2695C83.1069 31.2695 80.9219 33.7305 80.9219 37.0655ZM83.7739 36.9965C83.7739 35.1105 84.9699 33.7305 86.7409 33.7305C88.6729 33.7305 89.9609 35.1335 89.9609 36.9965C89.9609 38.8825 88.6729 40.3315 86.7409 40.3315C84.9929 40.3315 83.7739 38.9055 83.7739 36.9965Z" fill="white"/>
<path d="M94.1797 37.2964C94.1797 40.7924 96.5257 43.2764 100.091 43.2764C103.656 43.2764 106.002 40.7924 106.002 37.2964C106.002 33.8004 103.656 31.3164 100.091 31.3164C96.5257 31.3164 94.1797 33.8004 94.1797 37.2964ZM97.0087 37.2964C97.0087 35.2494 98.2277 33.8234 100.091 33.8234C101.954 33.8234 103.173 35.2494 103.173 37.2964C103.173 39.3204 101.954 40.7694 100.091 40.7694C98.2277 40.7694 97.0087 39.3204 97.0087 37.2964Z" fill="white"/>
<path d="M109.039 29.3155C109.959 29.3155 110.718 28.5795 110.718 27.6365C110.718 26.7165 109.959 25.9805 109.039 25.9805C108.096 25.9805 107.383 26.7165 107.383 27.6365C107.383 28.5795 108.096 29.3155 109.039 29.3155ZM107.636 43.0005H110.442V31.6385H107.636V43.0005Z" fill="white"/>
<path d="M112.898 48.267H115.636V41.436C116.349 42.609 117.89 43.299 119.592 43.299C122.95 43.299 124.951 40.723 124.905 37.181C124.836 33.616 122.789 31.293 119.569 31.293C117.844 31.293 116.28 32.052 115.59 33.363L115.429 31.638H112.898V48.267ZM115.751 37.319C115.751 35.272 116.993 33.846 118.948 33.846C120.903 33.846 122.076 35.295 122.076 37.319C122.076 39.343 120.903 40.769 118.948 40.769C116.993 40.769 115.751 39.366 115.751 37.319Z" fill="white"/>
<path d="M125.617 39.596C125.709 41.85 127.457 43.299 130.171 43.299C132.839 43.299 134.656 41.873 134.656 39.665C134.656 38.032 133.644 36.928 131.781 36.468L129.78 35.985C128.929 35.755 128.354 35.456 128.354 34.72C128.354 33.938 128.975 33.386 129.987 33.386C131.045 33.386 131.735 33.984 131.735 34.973H134.288C134.196 32.719 132.517 31.293 130.056 31.293C127.618 31.293 125.801 32.719 125.801 34.881C125.801 36.353 126.652 37.572 128.837 38.147L130.815 38.653C131.551 38.86 132.011 39.205 132.011 39.849C132.011 40.746 131.16 41.16 130.125 41.16C128.883 41.16 128.17 40.585 128.17 39.596H125.617Z" fill="white"/>
<path d="M140.475 43.2997C142.016 43.2997 143.488 42.5867 144.155 41.5287L144.34 43.0007H146.961V31.6387H144.155V37.5957C144.155 39.6427 143.374 40.7927 141.534 40.7927C140.108 40.7927 139.118 40.1027 139.118 37.7567V31.6387H136.312V38.7457C136.312 41.4597 137.784 43.2997 140.475 43.2997Z" fill="white"/>
<path d="M152.243 43V36.468C152.243 34.628 153.325 33.754 154.659 33.754C155.993 33.754 156.867 34.605 156.867 36.215V43H159.604V36.491C159.604 34.628 160.661 33.754 161.995 33.754C163.352 33.754 164.227 34.605 164.227 36.215V43H166.941V35.571C166.941 32.949 165.492 31.293 162.732 31.293C161.007 31.293 159.65 32.121 159.098 33.455C158.477 32.121 157.235 31.293 155.349 31.293C154.015 31.293 152.819 31.914 152.152 32.926L152.014 31.638H149.438V43H152.243Z" fill="white"/>
<path d="M145.519 53.1545C145.937 53.1545 146.3 52.8025 146.3 52.3845C146.3 51.9555 145.937 51.6035 145.519 51.6035C145.09 51.6035 144.727 51.9555 144.727 52.3845C144.727 52.8025 145.09 53.1545 145.519 53.1545Z" fill="white"/>
<path d="M147.105 50.3158C147.105 51.9988 148.139 53.1318 149.646 53.1318C150.944 53.1318 151.934 52.3508 152.143 51.1848H151.153C150.966 51.8338 150.394 52.2188 149.712 52.2188C148.744 52.2188 148.128 51.4708 148.128 50.3048C148.128 49.1168 148.777 48.3908 149.734 48.3908C150.394 48.3908 150.966 48.7428 151.142 49.4358H152.132C151.956 48.2588 151.032 47.4668 149.745 47.4668C148.183 47.4668 147.105 48.6218 147.105 50.3158Z" fill="white"/>
<path d="M152.535 50.3055C152.535 51.9225 153.635 53.1325 155.285 53.1325C156.935 53.1325 158.035 51.9225 158.035 50.3055C158.035 48.6885 156.935 47.4785 155.285 47.4785C153.635 47.4785 152.535 48.6885 152.535 50.3055ZM153.58 50.3055C153.58 49.2055 154.251 48.4025 155.285 48.4025C156.319 48.4025 156.99 49.2055 156.99 50.3055C156.99 51.4055 156.319 52.2085 155.285 52.2085C154.251 52.2085 153.58 51.4055 153.58 50.3055Z" fill="white"/>
<path d="M159.952 53.0115V49.7775C159.952 48.9305 160.48 48.3805 161.25 48.3805C161.987 48.3805 162.449 48.8535 162.449 49.7005V53.0115H163.461V49.7885C163.461 48.9305 163.978 48.3805 164.759 48.3805C165.485 48.3805 165.947 48.8535 165.947 49.7005V53.0115H166.948V49.4805C166.948 48.2375 166.222 47.4785 164.99 47.4785C164.154 47.4785 163.505 47.8855 163.241 48.5455C162.966 47.8855 162.361 47.4785 161.481 47.4785C160.81 47.4785 160.216 47.7865 159.919 48.3145L159.842 47.6325H158.918V53.0115H159.952Z" fill="white"/>
<path fill-rule="evenodd" clip-rule="evenodd" d="M17 37.4353L17.0019 37.2349L17.0059 37.0344L17.012 36.8339L17.02 36.6334L17.0302 36.4329L17.0424 36.2324L17.0567 36.032L17.073 35.8316L17.0914 35.6313L17.1119 35.431L17.1344 35.231L17.159 35.031L17.1856 34.8312L17.2143 34.6316L17.2451 34.4322L17.2779 34.2331L17.3127 34.0341L17.3496 33.8355L17.3886 33.6371L17.4296 33.439L17.4727 33.2412L17.5178 33.0438L17.565 32.8468L17.6142 32.6501L17.6654 32.4539L17.7186 32.258L17.7739 32.0626L17.8312 31.8677L17.8906 31.6733L17.9519 31.4794L18.0153 31.286L18.0806 31.0931L18.148 30.9008L18.2174 30.7091L18.2887 30.518L18.3621 30.3275L18.4374 30.1377L18.5147 29.9485L18.594 29.7601L18.6752 29.5723L18.7584 29.3852L18.8435 29.1989L18.9306 29.0134L19.0196 28.8286L19.1106 28.6446L19.2034 28.4615L19.2982 28.2792L19.3949 28.0977L19.4935 27.9172L19.594 27.7375L19.6963 27.5587L19.8005 27.3809L19.9066 27.204L20.0146 27.0281L20.1244 26.8532L20.236 26.6793L20.3494 26.5065L20.4647 26.3346L20.5818 26.1639L20.7006 25.9942L20.8213 25.8256L20.9437 25.6582L21.0679 25.4918L21.1938 25.3267L21.3215 25.1627L21.4509 24.9998L21.5821 24.8382L21.7149 24.6779L21.8494 24.5187L21.9857 24.3608L22.1235 24.2042L22.2631 24.0489L22.4043 23.8949L22.5471 23.7422L22.6915 23.5909L22.8376 23.4409L22.9852 23.2923L23.1345 23.1451L23.2852 22.9993L23.4376 22.8549L23.5915 22.7119L23.7469 22.5704L23.9038 22.4304L24.0622 22.2919L24.2221 22.1548L24.3834 22.0193L24.5462 21.8853L24.7105 21.7529L24.8761 21.622L25.0432 21.4927L25.2116 21.3649L25.3815 21.2388L25.5527 21.1143L25.7252 20.9914L25.899 20.8702L26.0742 20.7506L26.2506 20.6327L26.4283 20.5165L26.6073 20.402L26.7876 20.2892L26.969 20.1781L27.1517 20.0688L27.3355 19.9612L27.5205 19.8553L27.7067 19.7513L27.894 19.649L28.0824 19.5485L28.2719 19.4499L28.4625 19.353L28.6542 19.258L28.8469 19.1648L29.0407 19.0735L29.2354 18.9841L29.4312 18.8965L29.6279 18.8108L29.8256 18.727L30.0242 18.6451L30.2237 18.5652L30.4241 18.4871L30.6254 18.411L30.8275 18.3368L31.0305 18.2647L31.2343 18.1944L31.4389 18.1261L31.6442 18.0598L31.8503 17.9955L32.0572 17.9332L32.2648 17.8729L32.473 17.8146L32.682 17.7583L32.8916 17.7041L33.1018 17.6519L33.3126 17.6017L33.5241 17.5536L33.7361 17.5075L33.9486 17.4635L34.1617 17.4216L34.3753 17.3817L34.5894 17.3439L34.804 17.3082L35.019 17.2746L35.2344 17.2431L35.4502 17.2137L35.6664 17.1864L35.883 17.1612L36.0999 17.1381L36.3171 17.1171L36.5346 17.0983L36.7524 17.0815L36.9704 17.067L38.1428 17L38.2097 22.6487L38.248 22.6482L38.4099 22.648L38.5718 22.6494L38.7337 22.6523L38.8958 22.6569L39.0578 22.663L39.2199 22.6707L39.382 22.68L39.5441 22.691L39.7061 22.7035L39.8682 22.7176L40.0301 22.7333L40.192 22.7506L40.3537 22.7696L40.5154 22.7901L40.6769 22.8122L40.8383 22.8359L40.9995 22.8612L41.1606 22.8881L41.3214 22.9166L41.4821 22.9467L41.6425 22.9784L41.8026 23.0116L41.9626 23.0465L42.1222 23.0829L42.2815 23.121L42.4406 23.1606L42.5993 23.2018L42.7576 23.2446L42.9156 23.2889L43.0733 23.3349L43.2305 23.3824L43.3873 23.4314L43.5437 23.4821L43.6997 23.5343L43.8552 23.588L44.0102 23.6433L44.1648 23.7002L44.3188 23.7586L44.4723 23.8185L44.6253 23.88L44.7777 23.9431L44.9295 24.0076L45.0808 24.0737L45.2315 24.1412L45.3815 24.2104L45.5309 24.2809L45.6797 24.3531L45.8278 24.4267L45.9752 24.5018L46.1219 24.5784L46.2679 24.6564L46.4132 24.736L46.5577 24.8169L46.7015 24.8994L46.8445 24.9833L46.9867 25.0687L47.1281 25.1555L47.2687 25.2437L47.4084 25.3334L47.5473 25.4244L47.6853 25.5169L47.8225 25.6108L47.9587 25.706L48.0941 25.8027L48.2285 25.9007L48.3619 26.0001L48.4945 26.1009L48.626 26.203L48.7566 26.3065L48.8861 26.4112L49.0147 26.5173L49.1422 26.6248L49.2687 26.7335L49.3942 26.8435L49.5186 26.9548L49.6418 27.0674L49.764 27.1813L49.8851 27.2964L50.0051 27.4127L50.1239 27.5303L50.2416 27.6491L50.3581 27.7692L50.4735 27.8904L50.5876 28.0128L50.7006 28.1364L50.8123 28.2612L50.9228 28.3871L51.0321 28.5142L51.1401 28.6424L51.2469 28.7717L51.3524 28.9022L51.4566 29.0337L51.5595 29.1663L51.6611 29.3L51.7614 29.4348L51.8603 29.5706L51.9579 29.7075L52.0541 29.8454L52.149 29.9842L52.2425 30.1241L52.3346 30.265L52.4253 30.4069L52.5145 30.5497L52.6024 30.6934L52.6888 30.8381L52.7738 30.9837L52.8573 31.1302L52.9394 31.2776L53.02 31.4259L53.0991 31.575L53.1767 31.725L53.2528 31.8758L53.3274 32.0274L53.4005 32.1799L53.4721 32.3331L53.5421 32.4871L53.6106 32.6419L53.6775 32.7974L53.7428 32.9537L53.8066 33.1106L53.8688 33.2683L53.9294 33.4266L53.9884 33.5857L54.0458 33.7453L54.1016 33.9057L54.1558 34.0666L54.2084 34.2282L54.2593 34.3903L54.3086 34.553L54.3562 34.7163L54.4022 34.8801L54.4465 35.0445L54.4892 35.2094L54.5301 35.3747L54.5695 35.5406L54.6071 35.7069L54.643 35.8737L54.6773 36.0408L54.7098 36.2085L54.7406 36.3765L54.7698 36.5449L54.7972 36.7136L54.8229 36.8827L54.8469 37.0522L54.8691 37.2219L54.8896 37.392L54.9084 37.5623L54.9254 37.7329L54.9407 37.9037L54.9543 38.0748L54.9661 38.2461L54.9761 38.4176L54.9844 38.5892L54.991 38.7611L54.9957 38.933L54.9988 39.1051L55 39.2773L54.9995 39.4496L54.9972 39.622L54.9931 39.7945L54.9873 39.9669L54.9797 40.1394L54.9704 40.3119L54.9592 40.4844L54.9463 40.6569L54.9316 40.8293L54.9151 41.0017L54.8969 41.174L54.8768 41.3461L54.855 41.5182L54.8315 41.6901L54.8061 41.8619L54.779 42.0335L54.7501 42.2049L54.7194 42.3761L54.687 42.5471L54.6528 42.7179L54.6168 42.8884L54.579 43.0586L54.5395 43.2286L54.4983 43.3982L54.4552 43.5675L54.4104 43.7364L54.3639 43.905L54.3156 44.0732L54.2656 44.241L54.2138 44.4085L54.1602 44.5754L54.105 44.742L54.048 44.908L53.9892 45.0736L53.9288 45.2387L53.8666 45.4032L53.8027 45.5672L53.7371 45.7307L53.6698 45.8936L53.6008 46.0559L53.5301 46.2177L53.4577 46.3787L53.3836 46.5392L53.3078 46.699L53.2304 46.8581L53.1512 47.0166L53.0705 47.1743L52.988 47.3314L52.904 47.4876L52.8182 47.6432L52.7309 47.7979L52.6419 47.9519L52.5513 48.1051L52.4591 48.2574L52.3653 48.409L52.2698 48.5596L52.1728 48.7094L52.0743 48.8583L51.9741 49.0063L51.8724 49.1534L51.7691 49.2996L51.6643 49.4448L51.5579 49.5891L51.45 49.7324L51.3406 49.8747L51.2297 50.0159L51.1173 50.1562L51.0034 50.2954L50.888 50.4335L50.7711 50.5706L50.6528 50.7066L50.533 50.8415L50.4118 50.9753L50.2892 51.108L50.1652 51.2395L50.0397 51.3699L49.9129 51.499L49.7846 51.627L49.655 51.7538L49.5241 51.8794L49.3918 52.0038L49.2582 52.1269L49.1232 52.2488L48.9869 52.3693L48.8494 52.4886L48.7105 52.6067L48.5704 52.7234L48.429 52.8387L48.2864 52.9528L48.1425 53.0655L47.9974 53.1768L47.8511 53.2867L47.7036 53.3953L47.555 53.5025L47.4051 53.6082L47.2541 53.7126L47.102 53.8155L46.9488 53.9169L46.7944 54.0169L46.639 54.1155L46.4825 54.2125L46.3249 54.3081L46.1662 54.4021L46.0065 54.4947L45.8459 54.5857L45.6841 54.6751L45.5215 54.7631L45.3578 54.8494L45.1932 54.9342L45.0276 55.0175L44.8611 55.0991L44.6937 55.1791L44.5254 55.2576L44.3562 55.3344L44.1862 55.4096L44.0153 55.4831L43.8436 55.555L43.6711 55.6253L43.4978 55.6939L43.3237 55.7608L43.1488 55.8261L42.9732 55.8896L42.7968 55.9515L42.6198 56.0116L42.4421 56.0701L42.2636 56.1268L42.0845 56.1818L41.9048 56.2351L41.7245 56.2866L41.5435 56.3364L41.362 56.3845L41.1798 56.4307L40.9972 56.4752L40.814 56.518L40.6302 56.5589L40.446 56.5981L40.2613 56.6355L40.0761 56.6711L39.8905 56.7049L39.7045 56.7368L39.518 56.767L39.3312 56.7954L39.1439 56.8219L38.9564 56.8466L38.7685 56.8695L38.5802 56.8905L38.3917 56.9097L38.2029 56.9271L38.0139 56.9426L37.8246 56.9563L37.6351 56.9681L37.4453 56.9781L37.2554 56.9862L37.0654 56.9924L36.8751 56.9968L36.6848 56.9993L36.4943 57L36.3038 56.9988L36.1132 56.9957L35.9225 56.9908L35.7318 56.9839L35.5411 56.9752L35.3504 56.9647L35.1598 56.9522L34.9691 56.9379L34.7786 56.9217L34.5881 56.9036L34.3977 56.8837L34.2075 56.8619L34.0174 56.8382L33.8274 56.8126L33.6377 56.7851L33.4481 56.7558L33.2588 56.7246L33.0697 56.6916L32.8808 56.6566L32.6923 56.6198L32.504 56.5812L32.3161 56.5406L32.1284 56.4982L31.9412 56.454L31.7543 56.4079L31.5678 56.3599L31.3817 56.3101L31.1961 56.2585L31.0109 56.205L30.8261 56.1497L30.6419 56.0925L30.4582 56.0335L30.275 55.9727L30.0923 55.91L29.9102 55.8455L29.7287 55.7793L29.5478 55.7112L29.3675 55.6413L29.1879 55.5696L29.0089 55.4961L28.8306 55.4208L28.653 55.3438L28.4761 55.265L28.2999 55.1844L28.1245 55.102L27.9499 55.0179L27.7761 54.932L27.603 54.8444L27.4308 54.7551L27.2595 54.664L27.0889 54.5713L26.9193 54.4768L26.7506 54.3806L26.5828 54.2827L26.4159 54.1831L26.25 54.0819L26.085 53.9789L25.921 53.8744L25.7581 53.7681L25.5961 53.6603L25.4352 53.5507L25.2754 53.4396L25.1166 53.3269L24.9589 53.2125L24.8023 53.0966L24.6469 52.979L24.4926 52.8599L24.3394 52.7393L24.1874 52.617L24.0366 52.4933L23.887 52.368L23.7387 52.2412L23.5915 52.1129L23.4457 51.983L23.3011 51.8517L23.1578 51.719L23.0157 51.5847L22.875 51.4491L22.7357 51.3119L22.5977 51.1734L22.461 51.0335L22.3257 50.8921L22.1919 50.7494L22.0594 50.6053L21.9283 50.4598L21.7987 50.313L21.6706 50.1649L21.5439 50.0154L21.4187 49.8647L21.295 49.7126L21.1728 49.5593L21.0521 49.4047L20.9329 49.2489L20.8153 49.0918L20.6993 48.9335L20.5848 48.774L20.472 48.6133L20.3607 48.4515L20.251 48.2885L20.143 48.1243L20.0366 47.9591L19.9318 47.7927L19.8288 47.6252L19.7274 47.4567L19.6276 47.287L19.5296 47.1164L19.4333 46.9447L19.3387 46.772L19.2459 46.5982L19.1548 46.4235L19.0654 46.2479L18.9778 46.0713L18.892 45.8938L18.808 45.7153L18.7257 45.536L18.6453 45.3557L18.5667 45.1747L18.4899 44.9927L18.4149 44.81L18.3418 44.6264L18.2706 44.442L18.2012 44.2569L18.1337 44.071L18.068 43.8844L18.0042 43.6971L17.9424 43.509L17.8824 43.3203L17.8243 43.1309L17.7682 42.9409L17.714 42.7502L17.6617 42.5589L17.6114 42.3671L17.563 42.1747L17.5166 41.9817L17.4721 41.7882L17.4296 41.5941L17.389 41.3996L17.3505 41.2046L17.3139 41.0092L17.2793 40.8133L17.2467 40.617L17.2161 40.4203L17.1875 40.2232L17.1609 40.0257L17.1364 39.8279L17.1138 39.6298L17.0933 39.4314L17.0748 39.2328L17.0583 39.0338L17.0439 38.8346L17.0315 38.6352L17.0211 38.4356L17.0128 38.2358L17.0065 38.0359L17.0023 37.8358L17.0001 37.6356L17 37.4353ZM36.3781 22.767L36.3325 18.9168L36.2892 18.921L36.0904 18.9421L35.8921 18.9652L35.6939 18.9903L35.4965 19.0171L35.2993 19.046L35.1023 19.0768L34.9059 19.1095L34.7097 19.1441L34.5145 19.1805L34.319 19.219L34.1249 19.2592L33.9305 19.3014L33.7371 19.3455L33.5439 19.3914L33.3516 19.4392L33.1598 19.4888L32.9685 19.5403L32.7778 19.5937L32.588 19.6489L32.3985 19.7059L32.21 19.7648L32.022 19.8255L31.835 19.8878L31.6483 19.9522L31.4626 20.0183L31.2778 20.0861L31.0935 20.1558L30.9102 20.2271L30.7279 20.3002L30.5461 20.3752L30.3652 20.4519L30.1852 20.5303L30.0062 20.6104L29.8281 20.6922L29.651 20.7756L29.4745 20.8609L29.2993 20.9478L29.125 21.0363L28.9517 21.1266L28.7794 21.2184L28.6083 21.3119L28.4379 21.4071L28.2686 21.5039L28.1008 21.6021L27.9335 21.7023L27.7678 21.8038L27.6032 21.9068L27.4394 22.0115L27.2769 22.1178L27.1156 22.2256L26.9558 22.3347L26.7966 22.4458L26.639 22.558L26.4826 22.6717L26.3273 22.787L26.1734 22.9037L26.0209 23.0218L25.8693 23.1416L25.7194 23.2625L25.5706 23.3849L25.4232 23.5087L25.2771 23.634L25.1325 23.7605L24.989 23.8885L24.8471 24.0177L24.7064 24.1484L24.5674 24.2802L24.4296 24.4134L24.2934 24.5478L24.1585 24.6835L24.025 24.8207L23.8932 24.9587L23.7629 25.098L23.6337 25.2389L23.5064 25.3807L23.3806 25.5235L23.2561 25.6678L23.1334 25.813L23.012 25.9595L22.8923 26.107L22.7742 26.2557L22.6576 26.4054L22.5427 26.5561L22.4293 26.7079L22.3175 26.8609L22.2075 27.0146L22.0989 27.1696L21.9921 27.3254L21.8869 27.4822L21.7833 27.64L21.6815 27.7987L21.5813 27.9582L21.4829 28.1187L21.3861 28.28L21.291 28.4423L21.1975 28.6055L21.106 28.7693L21.016 28.934L20.9278 29.0996L20.8413 29.2659L20.7566 29.433L20.6737 29.6007L20.5925 29.7692L20.5131 29.9384L20.4354 30.1084L20.3596 30.2789L20.2855 30.4502L20.2132 30.6221L20.1427 30.7945L20.074 30.9676L20.0072 31.1413L19.9421 31.3155L19.8788 31.4903L19.8175 31.6655L19.7579 31.8414L19.7001 32.0177L19.6442 32.1945L19.5901 32.3716L19.5379 32.5494L19.4875 32.7274L19.439 32.9059L19.3923 33.0847L19.3474 33.264L19.3045 33.4435L19.2634 33.6234L19.2242 33.8036L19.1868 33.9841L19.1513 34.1648L19.1176 34.3458L19.0859 34.527L19.056 34.7085L19.028 34.8901L19.0018 35.0719L18.9776 35.2539L18.9552 35.436L18.9347 35.6182L18.916 35.8006L18.8993 35.983L18.8844 36.1654L18.8714 36.348L18.8603 36.5306L18.851 36.7131L18.8437 36.8957L18.8382 37.0782L18.8346 37.2607L18.8328 37.4431L18.8329 37.6255L18.8349 37.8077L18.8387 37.9899L18.8445 38.1719L18.852 38.3537L18.8615 38.5354L18.8728 38.7168L18.8859 38.8981L18.9009 39.0791L18.9177 39.2599L18.9364 39.4405L18.9569 39.6207L18.9793 39.8007L19.0034 39.9803L19.0294 40.1596L19.0573 40.3386L19.0869 40.5171L19.1184 40.6953L19.1517 40.8731L19.1867 41.0504L19.2236 41.2274L19.2623 41.4038L19.3027 41.5798L19.345 41.7553L19.3889 41.9303L19.4347 42.1048L19.4823 42.2786L19.5315 42.452L19.5826 42.6248L19.6354 42.797L19.6899 42.9686L19.7461 43.1395L19.8041 43.3098L19.8638 43.4794L19.9251 43.6484L19.9882 43.8166L20.053 43.9842L20.1194 44.151L20.1875 44.3171L20.2573 44.4824L20.3288 44.6469L20.4018 44.8107L20.4766 44.9737L20.5529 45.1358L20.6309 45.2971L20.7105 45.4575L20.7916 45.6171L20.8744 45.7758L20.9587 45.9336L21.0447 46.0905L21.1321 46.2464L21.2211 46.4014L21.3117 46.5555L21.4038 46.7085L21.4974 46.8606L21.5925 47.0117L21.6891 47.1617L21.7872 47.3108L21.8868 47.4588L21.9878 47.6057L22.0902 47.7516L22.1942 47.8964L22.2995 48.0401L22.4063 48.1827L22.5144 48.3241L22.624 48.4644L22.7348 48.6035L22.8471 48.7415L22.9608 48.8784L23.0757 49.014L23.192 49.1484L23.3096 49.2816L23.4285 49.4136L23.5487 49.5443L23.6701 49.6738L23.7928 49.802L23.9168 49.929L24.042 50.0547L24.1684 50.179L24.2961 50.3021L24.4248 50.4238L24.5548 50.5443L24.686 50.6634L24.8183 50.7811L24.9516 50.8974L25.0862 51.0124L25.2219 51.126L25.3585 51.2382L25.4964 51.3491L25.6352 51.4584L25.7751 51.5664L25.916 51.673L26.058 51.7781L26.2009 51.8817L26.3448 51.9839L26.4896 52.0846L26.6355 52.1839L26.7822 52.2816L26.93 52.3779L27.0785 52.4727L27.228 52.5659L27.3784 52.6577L27.5295 52.7479L27.6816 52.8366L27.8344 52.9237L27.9881 53.0093L28.1425 53.0933L28.2978 53.1758L28.4537 53.2567L28.6104 53.3361L28.7679 53.4138L28.9261 53.49L29.0849 53.5646L29.2444 53.6376L29.4045 53.7089L29.5654 53.7787L29.7268 53.8468L29.8889 53.9134L30.0515 53.9783L30.2147 54.0415L30.3785 54.1032L30.5427 54.1632L30.7075 54.2215L30.8729 54.2782L31.0387 54.3333L31.205 54.3867L31.3716 54.4384L31.5389 54.4885L31.7064 54.5369L31.8744 54.5836L32.0428 54.6287L32.2115 54.6721L32.3806 54.7138L32.5499 54.7538L32.7197 54.7922L32.8897 54.8288L33.0599 54.8638L33.2305 54.8971L33.4013 54.9287L33.5723 54.9586L33.7435 54.9868L33.9149 55.0133L34.0865 55.0381L34.2583 55.0612L34.4301 55.0827L34.6021 55.1024L34.7742 55.1204L34.9464 55.1368L35.1187 55.1514L35.291 55.1644L35.4633 55.1756L35.6357 55.1852L35.808 55.193L35.9803 55.1992L36.1526 55.2037L36.3249 55.2064L36.497 55.2075L36.6691 55.2069L36.8411 55.2046L37.0129 55.2007L37.1846 55.195L37.3562 55.1877L37.5276 55.1787L37.6987 55.168L37.8697 55.1557L38.0405 55.1417L38.211 55.126L38.3812 55.1086L38.5512 55.0896L38.7208 55.069L38.8902 55.0467L39.0592 55.0227L39.2279 54.9971L39.3962 54.9699L39.5642 54.941L39.7318 54.9105L39.8989 54.8784L40.0656 54.8447L40.2319 54.8093L40.3977 54.7724L40.563 54.7338L40.7279 54.6936L40.8922 54.6519L41.056 54.6085L41.2192 54.5636L41.382 54.5171L41.5441 54.469L41.7057 54.4194L41.8666 54.3683L42.027 54.3155L42.1867 54.2613L42.3456 54.2055L42.5041 54.1481L42.6618 54.0893L42.8188 54.0289L42.9751 53.9671L43.1306 53.9038L43.2854 53.8389L43.4395 53.7726L43.5928 53.7048L43.7452 53.6356L43.897 53.5649L44.0479 53.4927L44.1979 53.4192L44.3472 53.3441L44.4955 53.2677L44.643 53.1899L44.7897 53.1106L44.9353 53.03L45.0801 52.948L45.2239 52.8647L45.367 52.7799L45.5088 52.6939L45.65 52.6064L45.7899 52.5177L45.9289 52.4276L46.067 52.3362L46.2041 52.2434L46.3399 52.1496L46.4748 52.0543L46.6087 51.9578L46.7415 51.8601L46.8733 51.761L47.0038 51.6609L47.1335 51.5593L47.2618 51.4567L47.389 51.3529L47.5153 51.2478L47.6403 51.1415L47.764 51.0342L47.8867 50.9256L48.0081 50.816L48.1284 50.7052L48.2475 50.5933L48.3652 50.4804L48.4819 50.3662L48.5973 50.251L48.7114 50.1348L48.8243 50.0175L48.9358 49.8993L49.046 49.7801L49.1552 49.6595L49.2628 49.5383L49.3693 49.4159L49.4743 49.2927L49.5781 49.1684L49.6805 49.0433L49.7815 48.9172L49.8813 48.7901L49.9796 48.6623L50.0767 48.5334L50.1722 48.4038L50.2665 48.2732L50.3595 48.1417L50.4507 48.0097L50.5408 47.8766L50.6293 47.7429L50.7165 47.6082L50.8024 47.4727L50.8866 47.3367L50.9694 47.1999L51.0509 47.062L51.1307 46.9239L51.2092 46.7848L51.2863 46.645L51.3617 46.5048L51.4358 46.3636L51.5084 46.2218L51.5793 46.0799L51.6489 45.9368L51.717 45.7932L51.7835 45.6492L51.8485 45.5046L51.912 45.3594L51.9739 45.2138L52.0344 45.0674L52.0933 44.9206L52.1506 44.7737L52.2064 44.6257L52.2606 44.4777L52.3134 44.329L52.3646 44.18L52.4142 44.0305L52.4621 43.881L52.5087 43.7304L52.5535 43.58L52.5968 43.4291L52.6386 43.278L52.6788 43.1263L52.7173 42.9746L52.7544 42.8224L52.7898 42.6699L52.8237 42.5173L52.856 42.3643L52.8866 42.2114L52.9157 42.0578L52.9432 41.9046L52.9691 41.7508L52.9934 41.5969L53.0161 41.443L53.0373 41.2888L53.0568 41.1348L53.0748 40.9801L53.0911 40.826L53.1059 40.6714L53.119 40.5171L53.1306 40.3623L53.1406 40.2081L53.149 40.0534L53.1558 39.8986L53.161 39.7442L53.1647 39.5901L53.1667 39.4354L53.1672 39.281L53.1661 39.1268L53.1634 38.9727L53.1591 38.8186L53.1532 38.6651L53.1458 38.511L53.1368 38.3576L53.1262 38.2042L53.1141 38.0513L53.1004 37.8981L53.0852 37.7456L53.0684 37.593L53.05 37.4409L53.0301 37.2889L53.0087 37.1374L52.9856 36.9858L52.9611 36.8349L52.9351 36.6845L52.9075 36.534L52.8783 36.384L52.8477 36.2346L52.8155 36.0851L52.782 35.9367L52.7467 35.7881L52.7102 35.6405L52.6719 35.4927L52.6323 35.346L52.5912 35.1995L52.5486 35.0533L52.5046 34.908L52.4591 34.7632L52.412 34.6185L52.3637 34.4749L52.3137 34.3314L52.2625 34.1888L52.2097 34.0465L52.1556 33.9052L52.0999 33.7641L52.0429 33.6238L51.9846 33.4844L51.9249 33.3456L51.8635 33.207L51.8012 33.0697L51.7371 32.9325L51.6719 32.7966L51.6053 32.6612L51.5372 32.5263L51.468 32.3925L51.3973 32.2593L51.3252 32.1267L51.2522 31.9954L51.1775 31.8644L51.1017 31.7345L51.0244 31.6052L50.9462 31.4772L50.8663 31.3495L50.7855 31.223L50.7032 31.0971L50.6198 30.9723L50.5353 30.8486L50.4493 30.7254L50.3622 30.6033L50.274 30.4821L50.1845 30.362L50.0939 30.2426L50.0021 30.1244L49.9092 30.007L49.8151 29.8907L49.7199 29.7754L49.6235 29.661L49.526 29.5477L49.4275 29.4354L49.328 29.3242L49.2273 29.214L49.1253 29.1047L49.0228 28.9969L48.9186 28.8897L48.8139 28.784L48.708 28.6791L48.6012 28.5755L48.493 28.4727L48.3844 28.3715L48.2744 28.2711L48.1635 28.1719L48.052 28.074L47.9394 27.9772L47.8255 27.8813L47.711 27.7868L47.5957 27.6935L47.4794 27.6014L47.3622 27.5104L47.2444 27.4209L47.1253 27.3321L47.0058 27.245L46.8853 27.159L46.7639 27.0741L46.642 26.9906L46.5188 26.9081L46.3956 26.8273L46.271 26.7474L46.146 26.6689L46.02 26.5916L45.8935 26.5156L45.7663 26.441L45.6386 26.3678L45.5097 26.2955L45.3808 26.2249L45.2508 26.1554L45.1203 26.0873L44.9893 26.0206L44.8575 25.9551L44.7252 25.8909L44.5924 25.8282L44.4589 25.7667L44.3251 25.7067L44.1906 25.6479L44.0513 25.5887L43.9203 25.5346L43.784 25.4798L43.6479 25.4267L43.5107 25.3746L43.3735 25.3242L43.2357 25.275L43.0976 25.2273L42.9589 25.1808L42.8201 25.1359L42.6807 25.0923L42.541 25.0501L42.4012 25.0094L42.2608 24.97L42.1199 24.9319L41.9792 24.8954L41.8382 24.8602L41.6963 24.8264L41.5549 24.7941L41.4128 24.7631L41.2707 24.7336L41.1281 24.7054L40.9857 24.6787L40.8429 24.6534L40.7002 24.6296L40.5568 24.6071L40.4138 24.5861L40.2705 24.5665L40.127 24.5483L39.9835 24.5315L39.84 24.5161L39.6964 24.5022L39.5527 24.4897L39.4089 24.4786L39.265 24.4689L39.1215 24.4606L38.9779 24.4538L38.8338 24.4483L38.6905 24.4443L38.5469 24.4417L38.4034 24.4405L38.2597 24.4407L38.2309 24.441L38.2762 28.2632L38.3577 28.2628L38.4626 28.2634L38.5675 28.265L38.6725 28.2677L38.7776 28.2714L38.8827 28.2762L38.9878 28.282L39.093 28.2888L39.1982 28.2967L39.3034 28.3056L39.4086 28.3156L39.5137 28.3266L39.6189 28.3387L39.724 28.3518L39.829 28.3659L39.934 28.3812L40.0389 28.3974L40.1437 28.4147L40.2485 28.4331L40.3531 28.4525L40.4576 28.473L40.562 28.4945L40.6663 28.517L40.7704 28.5406L40.8743 28.5653L40.9781 28.591L41.0816 28.6177L41.185 28.6455L41.2882 28.6743L41.3912 28.7042L41.494 28.7351L41.5965 28.767L41.6987 28.8L41.8007 28.834L41.9025 28.8691L42.0039 28.9052L42.1051 28.9423L42.2059 28.9804L42.3065 29.0196L42.4067 29.0598L42.5066 29.101L42.6061 29.1433L42.7053 29.1865L42.8041 29.2308L42.9025 29.276L43.0005 29.3223L43.0982 29.3696L43.1954 29.4179L43.2922 29.4672L43.3886 29.5175L43.4845 29.5687L43.58 29.621L43.675 29.6742L43.7695 29.7284L43.8636 29.7836L43.9572 29.8398L44.0502 29.8969L44.1427 29.955L44.2347 30.0141L44.3262 30.0741L44.4171 30.135L44.5075 30.1969L44.5973 30.2598L44.6865 30.3235L44.7751 30.3882L44.8631 30.4539L44.9506 30.5204L45.0373 30.5879L45.1235 30.6563L45.209 30.7255L45.2939 30.7957L45.3781 30.8668L45.4617 30.9387L45.5446 31.0115L45.6268 31.0852L45.7083 31.1598L45.789 31.2352L45.8691 31.3115L45.9484 31.3886L46.027 31.4666L46.1049 31.5454L46.182 31.6251L46.2584 31.7055L46.3339 31.7868L46.4087 31.8689L46.4827 31.9518L46.5559 32.0354L46.6283 32.1199L46.6999 32.2051L46.7707 32.2911L46.8406 32.3779L46.9097 32.4654L46.9779 32.5537L47.0453 32.6427L47.1118 32.7325L47.1774 32.8229L47.2422 32.9141L47.306 33.006L47.369 33.0986L47.431 33.1919L47.4921 33.2858L47.5523 33.3805L47.6116 33.4758L47.67 33.5717L47.7274 33.6683L47.7838 33.7656L47.8393 33.8634L47.8938 33.9619L47.9473 34.061L47.9999 34.1607L48.0515 34.261L48.102 34.3619L48.1516 34.4634L48.2002 34.5654L48.2477 34.6679L48.2942 34.7711L48.3397 34.8747L48.3842 34.9789L48.4276 35.0836L48.47 35.1888L48.5113 35.2945L48.5515 35.4006L48.5907 35.5073L48.6288 35.6144L48.6659 35.722L48.7019 35.83L48.7367 35.9385L48.7705 36.0473L48.8032 36.1566L48.8348 36.2663L48.8653 36.3764L48.8946 36.4869L48.9229 36.5977L48.95 36.7089L48.976 36.8204L49.0009 36.9323L49.0246 37.0445L49.0472 37.157L49.0686 37.2698L49.0889 37.383L49.1081 37.4964L49.1261 37.61L49.1429 37.724L49.1586 37.8381L49.1731 37.9525L49.1865 38.0672L49.1986 38.1821L49.2096 38.2971L49.2195 38.4124L49.2281 38.5278L49.2356 38.6434L49.2418 38.7591L49.2469 38.875L49.2508 38.9911L49.2535 39.1072L49.255 39.2235L49.2553 39.3399L49.2544 39.4563L49.2523 39.5728L49.249 39.6894L49.2445 39.8061L49.2388 39.9227L49.2319 40.0394L49.2238 40.1562L49.2145 40.2729L49.2039 40.3896L49.1922 40.5063L49.1792 40.6229L49.1651 40.7396L49.1497 40.8561L49.1331 40.9726L49.1153 41.089L49.0963 41.2053L49.0761 41.3215L49.0546 41.4376L49.032 41.5536L49.0081 41.6694L48.983 41.7851L48.9568 41.9006L48.9293 42.0159L48.9006 42.131L48.8707 42.246L48.8396 42.3607L48.8073 42.4752L48.7738 42.5894L48.7391 42.7034L48.7032 42.8172L48.666 42.9307L48.6277 43.0438L48.5882 43.1567L48.5476 43.2693L48.5057 43.3815L48.4626 43.4934L48.4184 43.605L48.373 43.7162L48.3264 43.8271L48.2786 43.9375L48.2297 44.0476L48.1796 44.1573L48.1283 44.2665L48.0759 44.3753L48.0223 44.4837L47.9675 44.5916L47.9116 44.6991L47.8546 44.806L47.7964 44.9125L47.7371 45.0185L47.6767 45.124L47.6151 45.2289L47.5524 45.3334L47.4886 45.4372L47.4237 45.5406L47.3576 45.6433L47.2905 45.7455L47.2222 45.847L47.1529 45.948L47.0825 46.0484L47.011 46.1481L46.9384 46.2472L46.8648 46.3457L46.7901 46.4435L46.7143 46.5406L46.6375 46.637L46.5596 46.7328L46.4807 46.8278L46.4008 46.9222L46.3198 47.0158L46.2378 47.1087L46.1548 47.2008L46.0708 47.2922L45.9858 47.3828L45.8999 47.4727L45.8129 47.5617L45.725 47.65L45.636 47.7374L45.5462 47.8241L45.4553 47.9099L45.3636 47.9948L45.2709 48.079L45.1772 48.1622L45.0827 48.2446L44.9872 48.3262L44.8909 48.4068L44.7936 48.4866L44.6955 48.5654L44.5964 48.6433L44.4965 48.7203L44.3958 48.7964L44.2942 48.8715L44.1917 48.9457L44.0885 49.019L43.9844 49.0912L43.8795 49.1625L43.7737 49.2328L43.6672 49.3021L43.5599 49.3704L43.4519 49.4377L43.343 49.5039L43.2335 49.5692L43.1231 49.6334L43.0121 49.6965L42.9003 49.7586L42.7878 49.8197L42.6746 49.8797L42.5607 49.9386L42.4461 49.9964L42.3309 50.0531L42.215 50.1088L42.0984 50.1633L41.9812 50.2167L41.8634 50.269L41.745 50.3202L41.6259 50.3702L41.5063 50.4191L41.3861 50.4669L41.2653 50.5135L41.144 50.559L41.0221 50.6033L40.8997 50.6464L40.7767 50.6883L40.6533 50.7291L40.5293 50.7686L40.4049 50.807L40.28 50.8442L40.1546 50.8801L40.0288 50.9149L39.9025 50.9484L39.7758 50.9807L39.6487 51.0118L39.5212 51.0417L39.3932 51.0703L39.265 51.0977L39.1363 51.1238L39.0073 51.1487L38.878 51.1724L38.7483 51.1948L38.6183 51.2159L38.4881 51.2357L38.3575 51.2543L38.2266 51.2716L38.0955 51.2877L37.9642 51.3024L37.8326 51.3159L37.7008 51.3281L37.5688 51.339L37.4366 51.3486L37.3042 51.3569L37.1716 51.3639L37.0389 51.3696L36.906 51.374L36.773 51.3771L36.6399 51.3789L36.5066 51.3794L36.3733 51.3786L36.24 51.3764L36.1065 51.373L35.973 51.3682L35.8395 51.3621L35.7059 51.3547L35.5724 51.346L35.4388 51.336L35.3053 51.3246L35.1718 51.3119L35.0383 51.2979L34.9049 51.2826L34.7716 51.266L34.6383 51.248L34.5052 51.2287L34.3722 51.2081L34.2393 51.1862L34.1065 51.1629L33.9739 51.1384L33.8415 51.1125L33.7093 51.0852L33.5772 51.0567L33.4454 51.0269L33.3138 50.9957L33.1824 50.9632L33.0513 50.9294L32.9204 50.8943L32.7898 50.8579L32.6596 50.8202L32.5296 50.7812L32.3999 50.7409L32.2706 50.6992L32.1417 50.6563L32.013 50.6121L31.8848 50.5666L31.757 50.5198L31.6295 50.4717L31.5025 50.4223L31.3759 50.3717L31.2497 50.3197L31.124 50.2665L30.9988 50.2121L30.8741 50.1563L30.7498 50.0993L30.6261 50.0411L30.5029 49.9816L30.3802 49.9208L30.258 49.8588L30.1365 49.7956L30.0155 49.7311L29.8951 49.6654L29.7753 49.5985L29.6561 49.5303L29.5375 49.461L29.4196 49.3904L29.3023 49.3186L29.1857 49.2457L29.0698 49.1715L28.9546 49.0962L28.8401 49.0196L28.7263 48.9419L28.6132 48.8631L28.5009 48.7831L28.3893 48.7019L28.2785 48.6196L28.1684 48.5361L28.0592 48.4515L27.9508 48.3658L27.8432 48.2789L27.7364 48.191L27.6304 48.1019L27.5253 48.0118L27.4211 47.9205L27.3177 47.8282L27.2152 47.7348L27.1137 47.6404L27.013 47.5449L26.9132 47.4483L26.8144 47.3507L26.7166 47.2521L26.6197 47.1524L26.5237 47.0518L26.4287 46.9501L26.3348 46.8475L26.2418 46.7438L26.1498 46.6392L26.0589 46.5336L25.9689 46.4271L25.8801 46.3196L25.7922 46.2111L25.7055 46.1018L25.6198 45.9915L25.5352 45.8803L25.4517 45.7682L25.3692 45.6553L25.2879 45.5414L25.2078 45.4267L25.1287 45.3111L25.0508 45.1947L24.9741 45.0775L24.8985 44.9594L24.824 44.8405L24.7508 44.7208L24.6787 44.6003L24.6079 44.4791L24.5382 44.357L24.4698 44.2343L24.4025 44.1107L24.3366 43.9865L24.2718 43.8615L24.2083 43.7358L24.146 43.6094L24.085 43.4823L24.0253 43.3546L23.9669 43.2261L23.9097 43.0971L23.8539 42.9674L23.7993 42.837L23.746 42.7061L23.6941 42.5746L23.6435 42.4424L23.5942 42.3097L23.5463 42.1765L23.4996 42.0426L23.4544 41.9083L23.4105 41.7734L23.3679 41.638L23.3267 41.5022L23.2869 41.3658L23.2485 41.229L23.2114 41.0917L23.1758 40.9539L23.1415 40.8158L23.1087 40.6772L23.0772 40.5382L23.0472 40.3988L23.0185 40.2591L22.9913 40.119L22.9655 39.9785L22.9412 39.8377L22.9183 39.6966L22.8968 39.5552L22.8767 39.4135L22.8581 39.2715L22.841 39.1292L22.8253 38.9867L22.811 38.844L22.7982 38.701L22.7869 38.5578L22.7771 38.4145L22.7687 38.2709L22.7617 38.1272L22.7563 37.9834L22.7523 37.8394L22.7498 37.6953L22.7488 37.551L22.7493 37.4067L22.7512 37.2623L22.7546 37.1179L22.7596 36.9734L22.766 36.8288L22.7739 36.6843L22.7832 36.5397L22.7941 36.3952L22.8065 36.2506L22.8203 36.1062L22.8357 35.9617L22.8525 35.8174L22.8709 35.6731L22.8907 35.5289L22.912 35.3848L22.9349 35.2409L22.9591 35.0971L22.985 34.9535L23.0122 34.81L23.041 34.6667L23.0713 34.5237L23.103 34.3808L23.1363 34.2382L23.171 34.0958L23.2072 33.9537L23.2449 33.8119L23.284 33.6703L23.3247 33.5291L23.3668 33.3882L23.4104 33.2476L23.4555 33.1073L23.502 32.9675L23.5499 32.828L23.5994 32.6889L23.6503 32.5502L23.7027 32.4119L23.7564 32.2741L23.8117 32.1367L23.8684 31.9998L23.9265 31.8634L23.9861 31.7274L24.0471 31.592L24.1095 31.4571L24.1733 31.3227L24.2386 31.1889L24.3053 31.0557L24.3733 30.923L24.4428 30.791L24.5136 30.6595L24.5859 30.5287L24.6595 30.3985L24.7346 30.2689L24.811 30.1401L24.8887 30.0119L24.9678 29.8844L25.0483 29.7576L25.1301 29.6315L25.2133 29.5062L25.2977 29.3816L25.3836 29.2578L25.4707 29.1347L25.5591 29.0124L25.6489 28.891L25.7399 28.7703L25.8323 28.6505L25.9259 28.5315L26.0208 28.4134L26.1169 28.2962L26.2143 28.1798L26.313 28.0643L26.4129 27.9497L26.514 27.8361L26.6164 27.7234L26.7199 27.6116L26.8247 27.5008L26.9307 27.3909L27.0378 27.2821L27.1461 27.1742L27.2556 27.0673L27.3663 26.9615L27.4781 26.8566L27.591 26.7529L27.7051 26.6501L27.8203 26.5485L27.9365 26.4479L28.0539 26.3484L28.1724 26.25L28.2919 26.1527L28.4125 26.0565L28.5342 25.9615L28.6569 25.8676L28.7806 25.7749L28.9054 25.6833L29.0311 25.5929L29.1578 25.5037L29.2856 25.4157L29.4143 25.3289L29.5439 25.2434L29.6746 25.159L29.8061 25.0759L29.9386 24.994L30.072 24.9134L30.2063 24.8341L30.3414 24.756L30.4775 24.6792L30.6144 24.6038L30.7521 24.5296L30.8907 24.4567L31.0301 24.3852L31.1703 24.315L31.3113 24.2461L31.4531 24.1786L31.5957 24.1124L31.739 24.0476L31.8831 23.9842L32.0279 23.9222L32.1734 23.8615L32.3196 23.8022L32.4664 23.7444L32.614 23.688L32.7622 23.6329L32.9111 23.5794L33.0606 23.5272L33.2107 23.4765L33.3614 23.4272L33.5126 23.3794L33.6645 23.333L33.8169 23.2881L33.9699 23.2447L34.1233 23.2028L34.2773 23.1623L34.4318 23.1234L34.5868 23.0859L34.7422 23.05L34.8981 23.0155L35.0544 22.9826L35.2111 22.9511L35.3683 22.9213L35.5258 22.8929L35.6837 22.866L35.842 22.8408L36.0006 22.817L36.1595 22.7948L36.3187 22.7741L36.3781 22.767ZM36.4453 28.4361L36.3995 24.5719L36.269 24.5901L36.1287 24.6112L35.9883 24.6336L35.8488 24.6573L35.7091 24.6825L35.5701 24.7089L35.4314 24.7367L35.2932 24.7658L35.1553 24.7963L35.0177 24.8282L34.8805 24.8613L34.7439 24.8958L34.6074 24.9316L34.4763 24.9674L34.3366 25.0071L34.2017 25.0468L34.0674 25.0878L33.9338 25.13L33.8005 25.1736L33.6677 25.2185L33.5355 25.2646L33.404 25.3119L33.273 25.3606L33.1426 25.4104L33.0127 25.4616L32.8838 25.5139L32.7549 25.5676L32.627 25.6224L32.4997 25.6784L32.3733 25.7356L32.2472 25.7941L32.1218 25.8538L31.9975 25.9145L31.8734 25.9766L31.7506 26.0397L31.628 26.1042L31.5066 26.1695L31.3854 26.2364L31.2654 26.304L31.1462 26.3729L31.0276 26.443L30.9099 26.5141L30.7928 26.5865L30.6769 26.6597L30.5615 26.7342L30.4472 26.8097L30.3337 26.8862L30.221 26.9639L30.109 27.0427L29.9983 27.1222L29.8882 27.2031L29.779 27.2849L29.6708 27.3677L29.5636 27.4514L29.4571 27.5363L29.3518 27.622L29.2474 27.7087L29.1438 27.7966L29.0415 27.8851L28.9399 27.9748L28.8393 28.0654L28.7398 28.1568L28.6414 28.2491L28.5437 28.3425L28.4474 28.4365L28.352 28.5315L28.2575 28.6275L28.1642 28.7242L28.0719 28.8219L27.9807 28.9203L27.8906 29.0195L27.8015 29.1196L27.7134 29.2206L27.6268 29.3221L27.541 29.4246L27.4563 29.5279L27.3728 29.6318L27.2905 29.7364L27.2091 29.842L27.129 29.9481L27.05 30.055L26.9722 30.1626L26.8955 30.2709L26.8201 30.3797L26.7458 30.4893L26.6726 30.5996L26.6006 30.7105L26.5299 30.8219L26.4604 30.934L26.392 31.0469L26.3248 31.1601L26.2589 31.274L26.1941 31.3885L26.1307 31.5033L26.0684 31.6189L26.0072 31.7351L25.9475 31.8515L25.8889 31.9687L25.8316 32.0863L25.7755 32.2042L25.7207 32.3228L25.6671 32.4417L25.6148 32.5611L25.5637 32.6809L25.514 32.8011L25.4655 32.9217L25.4182 33.0428L25.3722 33.1642L25.3276 33.2859L25.2841 33.4081L25.2421 33.5304L25.2012 33.6532L25.1617 33.7763L25.1234 33.8997L25.0865 34.0233L25.0508 34.1472L25.0165 34.2713L24.9834 34.3958L24.9516 34.5204L24.9212 34.6453L24.8921 34.7704L24.8642 34.8956L24.8377 35.0211L24.8125 35.1467L24.7885 35.2724L24.7659 35.3984L24.7446 35.5244L24.7246 35.6506L24.7059 35.7767L24.6885 35.9031L24.6725 36.0295L24.6577 36.156L24.6443 36.2825L24.6321 36.4091L24.6213 36.5357L24.6118 36.6622L24.6036 36.7889L24.5966 36.9155L24.591 37.042L24.5867 37.1685L24.5837 37.2949L24.582 37.4213L24.5816 37.5477L24.5825 37.6739L24.5847 37.8L24.5882 37.926L24.5929 38.0518L24.599 38.1776L24.6063 38.3032L24.615 38.4285L24.6249 38.5538L24.636 38.6788L24.6485 38.8036L24.6622 38.9282L24.6772 39.0526L24.6935 39.1768L24.711 39.3006L24.7298 39.4243L24.7498 39.5475L24.7711 39.6706L24.7937 39.7934L24.8174 39.9157L24.8425 40.0379L24.8687 40.1596L24.8962 40.2811L24.9249 40.402L24.9548 40.5227L24.9859 40.643L25.0183 40.7629L25.0518 40.8823L25.0866 41.0014L25.1225 41.12L25.1597 41.2382L25.198 41.356L25.2375 41.4732L25.2782 41.5899L25.32 41.7062L25.363 41.822L25.4072 41.9373L25.4525 42.052L25.4989 42.1662L25.5465 42.2799L25.5952 42.393L25.6451 42.5055L25.696 42.6175L25.7481 42.7288L25.8013 42.8396L25.8555 42.9498L25.9109 43.0593L25.9673 43.1683L26.0248 43.2766L26.0834 43.3842L26.143 43.4912L26.2037 43.5975L26.2654 43.7031L26.3282 43.808L26.392 43.9123L26.4568 44.0158L26.5226 44.1186L26.5895 44.2208L26.6572 44.322L26.7261 44.4227L26.7958 44.5225L26.8666 44.6216L26.9383 44.7199L27.011 44.8174L27.0846 44.9141L27.1592 45.0101L27.2346 45.1052L27.311 45.1995L27.3883 45.293L27.4665 45.3857L27.5456 45.4774L27.6256 45.5685L27.7064 45.6585L27.7881 45.7478L27.8706 45.8361L27.954 45.9236L28.0382 46.0102L28.1233 46.0959L28.2091 46.1807L28.2958 46.2646L28.3833 46.3476L28.4714 46.4296L28.5605 46.5108L28.6502 46.5909L28.7407 46.6701L28.832 46.7484L28.924 46.8257L29.0167 46.9021L29.1101 46.9774L29.2042 47.0518L29.299 47.1252L29.3945 47.1977L29.4907 47.2691L29.5874 47.3395L29.6848 47.4089L29.7829 47.4773L29.8816 47.5447L29.981 47.6111L30.0809 47.6764L30.1814 47.7407L30.2825 47.804L30.3841 47.8662L30.4863 47.9274L30.5891 47.9875L30.6923 48.0465L30.7962 48.1045L30.9004 48.1614L31.0053 48.2173L31.1106 48.2721L31.2163 48.3257L31.3226 48.3784L31.4294 48.4299L31.5365 48.4804L31.644 48.5297L31.7521 48.578L31.8604 48.6251L31.9692 48.6711L32.0784 48.7161L32.188 48.7599L32.2978 48.8026L32.4081 48.8442L32.5187 48.8847L32.6296 48.9241L32.7408 48.9623L32.8524 48.9995L32.9642 49.0354L33.0763 49.0703L33.1887 49.104L33.3013 49.1366L33.4141 49.1681L33.5272 49.1984L33.6405 49.2277L33.754 49.2557L33.8677 49.2826L33.9816 49.3084L34.0957 49.3331L34.2099 49.3566L34.3242 49.3789L34.4388 49.4001L34.5533 49.4202L34.6681 49.4392L34.7829 49.4569L34.8978 49.4736L35.0128 49.4891L35.1278 49.5035L35.2429 49.5167L35.358 49.5288L35.4732 49.5397L35.5884 49.5495L35.7036 49.5581L35.8188 49.5657L35.9339 49.572L36.049 49.5773L36.1642 49.5814L36.2792 49.5844L36.3941 49.5862L36.509 49.5869L36.6238 49.5865L36.7385 49.5849L36.8531 49.5823L36.9675 49.5785L37.0819 49.5736L37.196 49.5675L37.31 49.5604L37.4238 49.5521L37.5375 49.5427L37.6509 49.5322L37.7642 49.5206L37.8773 49.5079L37.9901 49.4941L38.1027 49.4792L38.215 49.4633L38.3271 49.4462L38.4389 49.428L38.5503 49.4088L38.6616 49.3884L38.7725 49.367L38.8831 49.3446L38.9935 49.321L39.1033 49.2964L39.2129 49.2708L39.3221 49.244L39.431 49.2163L39.5395 49.1875L39.6476 49.1576L39.7553 49.1267L39.8626 49.0948L39.9694 49.0619L40.0758 49.0279L40.1819 48.9929L40.2874 48.9569L40.3925 48.9199L40.4971 48.8819L40.6012 48.8429L40.7048 48.8029L40.8079 48.7619L40.9106 48.7199L41.0127 48.677L41.1142 48.6331L41.2153 48.5883L41.3157 48.5425L41.4157 48.4957L41.5151 48.448L41.6137 48.3995L41.7121 48.3498L41.8096 48.2994L41.9067 48.2479L42.0029 48.1957L42.0987 48.1425L42.1939 48.0884L42.2883 48.0334L42.3822 47.9775L42.4754 47.9208L42.5678 47.8632L42.6598 47.8047L42.7508 47.7455L42.8413 47.6853L42.9312 47.6242L43.0202 47.5624L43.1084 47.4999L43.1962 47.4363L43.283 47.3722L43.3692 47.3071L43.4547 47.2412L43.5391 47.1747L43.6232 47.1072L43.7064 47.039L43.7885 46.9702L43.8703 46.9003L43.951 46.83L44.0309 46.759L44.1103 46.6869L44.1885 46.6145L44.2661 46.5412L44.3429 46.4672L44.4187 46.3926L44.4938 46.3172L44.5681 46.2412L44.6415 46.1645L44.7139 46.0872L44.7856 46.0092L44.8565 45.9306L44.9263 45.8515L44.9955 45.7715L45.0636 45.6911L45.1308 45.6101L45.1973 45.5283L45.2627 45.4463L45.3273 45.3634L45.391 45.2801L45.4538 45.1961L45.5156 45.1117L45.5764 45.0269L45.6365 44.9412L45.6955 44.8553L45.7536 44.7688L45.8109 44.6817L45.8669 44.5944L45.9223 44.5064L45.9766 44.4179L46.03 44.3291L46.0823 44.2398L46.1339 44.1499L46.1842 44.06L46.2338 43.9692L46.2823 43.8783L46.3297 43.787L46.3764 43.695L46.4218 43.6032L46.4665 43.5104L46.5099 43.4179L46.5527 43.3244L46.5941 43.2311L46.6348 43.137L46.6744 43.043L46.7129 42.9486L46.7505 42.8538L46.7871 42.7587L46.8225 42.6636L46.8572 42.5679L46.8906 42.4721L46.9231 42.3761L46.9546 42.2798L46.9851 42.1832L47.0146 42.0865L47.043 41.9897L47.0704 41.8925L47.0967 41.7953L47.1221 41.6978L47.1464 41.6002L47.1697 41.5026L47.192 41.4045L47.2132 41.3065L47.2335 41.2084L47.2526 41.1103L47.2708 41.012L47.2879 40.9133L47.304 40.815L47.3191 40.7164L47.3331 40.6177L47.3461 40.5192L47.3581 40.4205L47.3691 40.3215L47.379 40.2232L47.388 40.1241L47.3959 40.0254L47.4027 39.9269L47.4086 39.8281L47.4134 39.7295L47.4172 39.631L47.42 39.5322L47.4217 39.434L47.4225 39.3354L47.4222 39.2371L47.421 39.1388L47.4187 39.0409L47.4154 38.9428L47.4111 38.8449L47.4058 38.7474L47.3995 38.6496L47.3922 38.5521L47.384 38.4551L47.3747 38.3578L47.3644 38.2611L47.3531 38.1642L47.3409 38.0678L47.3277 37.9715L47.3135 37.8753L47.2983 37.7795L47.2822 37.684L47.2651 37.5887L47.247 37.4937L47.2279 37.3986L47.2079 37.3042L47.187 37.2101L47.1651 37.1161L47.1422 37.0223L47.1185 36.9293L47.0937 36.836L47.0681 36.7435L47.0415 36.6511L47.014 36.5593L46.9856 36.4676L46.9562 36.3763L46.926 36.2856L46.8949 36.1952L46.8627 36.1049L46.8299 36.0154L46.796 35.9261L46.7613 35.8374L46.7257 35.7489L46.6892 35.6608L46.6519 35.5735L46.6136 35.4863L46.5746 35.3998L46.5347 35.3138L46.4939 35.228L46.4522 35.1427L46.4099 35.0582L46.3665 34.9739L46.3225 34.8904L46.2776 34.8074L46.2318 34.7245L46.1854 34.6426L46.138 34.561L46.0899 34.4801L46.0409 34.3995L45.9914 34.3198L45.9408 34.2403L45.8897 34.1617L45.8377 34.0836L45.785 34.0061L45.7314 33.929L45.6772 33.8527L45.6224 33.7771L45.5666 33.7018L45.5103 33.6274L45.4531 33.5535L45.3955 33.4804L45.3369 33.4077L45.2777 33.3358L45.2178 33.2645L45.1573 33.1938L45.0962 33.124L45.0342 33.0546L44.9718 32.9861L44.9086 32.9181L44.845 32.8511L44.7804 32.7844L44.7155 32.7187L44.6497 32.6534L44.5835 32.5891L44.5168 32.5255L44.4494 32.4625L44.3813 32.4002L44.3127 32.3388L44.2436 32.2781L44.1737 32.2179L44.1038 32.1589L44.0329 32.1002L43.9616 32.0425L43.8898 31.9856L43.8174 31.9292L43.7446 31.8738L43.6715 31.8193L43.5975 31.7653L43.523 31.712L43.4485 31.6599L43.373 31.6082L43.2976 31.5577L43.2215 31.5077L43.1449 31.4585L43.0678 31.4101L42.9906 31.3627L42.9126 31.3159L42.8345 31.2701L42.7557 31.2249L42.677 31.1808L42.5976 31.1374L42.5178 31.0947L42.4377 31.0529L42.3574 31.0121L42.2766 30.9719L42.1954 30.9326L42.1141 30.8942L42.0326 30.8567L41.9502 30.8198L41.8682 30.784L41.7856 30.749L41.7026 30.7147L41.6195 30.6814L41.5363 30.649L41.4527 30.6174L41.3686 30.5865L41.2847 30.5567L41.2003 30.5276L41.1157 30.4994L41.0312 30.4721L40.9463 30.4457L40.8614 30.4201L40.7758 30.3953L40.6905 30.3715L40.605 30.3485L40.5193 30.3264L40.4335 30.3051L40.3473 30.2847L40.2613 30.2652L40.1753 30.2466L40.0889 30.2288L40.0023 30.2118L39.9162 30.1959L39.8295 30.1807L39.743 30.1664L39.6561 30.1529L39.5697 30.1404L39.4826 30.1286L39.3961 30.1179L39.3093 30.1079L39.2225 30.0988L39.1358 30.0906L39.0489 30.0832L38.9624 30.0767L38.8754 30.0711L38.7888 30.0663L38.7024 30.0624L38.6154 30.0593L38.5291 30.0571L38.4427 30.0558L38.3564 30.0553L38.2974 30.0555L38.3421 33.8309L38.3688 33.831L38.4184 33.8317L38.4681 33.8329L38.5179 33.8345L38.5677 33.8368L38.6176 33.8395L38.6675 33.8427L38.7175 33.8465L38.7675 33.8508L38.8176 33.8556L38.8677 33.8609L38.9178 33.8667L38.968 33.8731L39.0181 33.88L39.0683 33.8874L39.1185 33.8954L39.1687 33.9039L39.2188 33.9129L39.269 33.9225L39.3191 33.9325L39.3692 33.9432L39.4193 33.9543L39.4694 33.966L39.5193 33.9782L39.5693 33.9909L39.6192 34.0042L39.669 34.018L39.7188 34.0323L39.7685 34.0472L39.8181 34.0626L39.8676 34.0786L39.9171 34.0951L39.9664 34.1121L40.0157 34.1296L40.0648 34.1477L40.1138 34.1663L40.1627 34.1854L40.2115 34.2051L40.2601 34.2253L40.3086 34.246L40.357 34.2673L40.4052 34.2891L40.4533 34.3114L40.5012 34.3343L40.5489 34.3576L40.5965 34.3815L40.6438 34.406L40.691 34.4309L40.738 34.4564L40.7848 34.4824L40.8314 34.5089L40.8778 34.5359L40.9239 34.5634L40.9699 34.5915L41.0156 34.6201L41.0611 34.6492L41.1063 34.6787L41.1513 34.7088L41.1961 34.7395L41.2406 34.7706L41.2848 34.8022L41.3288 34.8343L41.3725 34.8669L41.4159 34.9L41.459 34.9336L41.5019 34.9677L41.5444 35.0023L41.5866 35.0373L41.6286 35.0729L41.6702 35.1089L41.7115 35.1454L41.7525 35.1824L41.7931 35.2199L41.8334 35.2578L41.8733 35.2962L41.913 35.3351L41.9522 35.3744L41.9911 35.4142L42.0297 35.4544L42.0678 35.4951L42.1056 35.5363L42.143 35.5779L42.1801 35.6199L42.2167 35.6624L42.2529 35.7053L42.2888 35.7486L42.3242 35.7924L42.3592 35.8366L42.3938 35.8812L42.428 35.9263L42.4618 35.9717L42.4951 36.0176L42.5279 36.0638L42.5604 36.1105L42.5924 36.1576L42.6239 36.2051L42.655 36.2529L42.6857 36.3012L42.7158 36.3498L42.7455 36.3988L42.7747 36.4482L42.8034 36.4979L42.8317 36.548L42.8594 36.5985L42.8867 36.6493L42.9135 36.7005L42.9397 36.752L42.9655 36.8038L42.9907 36.856L43.0154 36.9086L43.0396 36.9614L43.0633 37.0146L43.0865 37.0681L43.1091 37.1219L43.1312 37.176L43.1527 37.2304L43.1737 37.2851L43.1942 37.3401L43.2141 37.3954L43.2334 37.451L43.2522 37.5068L43.2704 37.5629L43.288 37.6193L43.3051 37.6759L43.3216 37.7328L43.3375 37.79L43.3529 37.8473L43.3677 37.9049L43.3818 37.9628L43.3954 38.0209L43.4084 38.0791L43.4208 38.1377L43.4326 38.1964L43.4437 38.2552L43.4543 38.3144L43.4643 38.3737L43.4737 38.4331L43.4824 38.4928L43.4905 38.5526L43.498 38.6126L43.5049 38.6728L43.5112 38.7331L43.5168 38.7935L43.5218 38.8541L43.5262 38.9149L43.5299 38.9757L43.533 39.0367L43.5354 39.0978L43.5373 39.159L43.5384 39.2203L43.539 39.2817L43.5388 39.3431L43.5381 39.4047L43.5367 39.4664L43.5346 39.5281L43.5319 39.5899L43.5285 39.6517L43.5245 39.7136L43.5198 39.7755L43.5144 39.8375L43.5084 39.8995L43.5018 39.9615L43.4944 40.0235L43.4864 40.0856L43.4778 40.1477L43.4685 40.2097L43.4585 40.2717L43.4478 40.3337L43.4365 40.3957L43.4245 40.4577L43.4119 40.5196L43.3985 40.5815L43.3845 40.6433L43.3699 40.7051L43.3545 40.7668L43.3385 40.8285L43.3219 40.89L43.3045 40.9515L43.2865 41.0128L43.2678 41.0741L43.2485 41.1353L43.2285 41.1963L43.2078 41.2573L43.1865 41.3181L43.1644 41.3787L43.1417 41.4393L43.1184 41.4996L43.0944 41.5599L43.0697 41.6199L43.0444 41.6798L43.0184 41.7395L42.9917 41.7991L42.9644 41.8584L42.9364 41.9175L42.9077 41.9765L42.8785 42.0352L42.8485 42.0937L42.8179 42.152L42.7866 42.21L42.7547 42.2678L42.7222 42.3254L42.689 42.3827L42.6551 42.4398L42.6207 42.4965L42.5855 42.5531L42.5498 42.6093L42.5134 42.6652L42.4763 42.7209L42.4387 42.7762L42.4004 42.8313L42.3615 42.886L42.3219 42.9404L42.2818 42.9945L42.241 43.0482L42.1996 43.1016L42.1576 43.1547L42.115 43.2074L42.0718 43.2597L42.028 43.3117L41.9836 43.3633L41.9385 43.4145L41.8929 43.4653L41.8467 43.5158L41.7999 43.5658L41.7526 43.6154L41.7046 43.6647L41.6561 43.7135L41.607 43.7618L41.5574 43.8098L41.5071 43.8573L41.4563 43.9043L41.405 43.9509L41.3531 43.9971L41.3007 44.0428L41.2477 44.088L41.1942 44.1327L41.1401 44.177L41.0855 44.2208L41.0304 44.264L40.9748 44.3068L40.9187 44.3491L40.862 44.3909L40.8049 44.4321L40.7472 44.4728L40.6891 44.5131L40.6304 44.5527L40.5713 44.5919L40.5117 44.6304L40.4516 44.6685L40.391 44.706L40.33 44.7429L40.2685 44.7792L40.2066 44.815L40.1442 44.8502L40.0813 44.8848L40.0181 44.9189L39.9544 44.9523L39.8903 44.9852L39.8257 45.0174L39.7608 45.0491L39.6954 45.0801L39.6296 45.1105L39.5635 45.1403L39.4969 45.1694L39.43 45.198L39.3627 45.2259L39.295 45.2531L39.2269 45.2797L39.1585 45.3057L39.0897 45.331L39.0206 45.3557L38.9512 45.3797L38.8814 45.403L38.8113 45.4257L38.7409 45.4476L38.6702 45.4689L38.5991 45.4896L38.5278 45.5095L38.4562 45.5288L38.3843 45.5473L38.3121 45.5652L38.2396 45.5823L38.1669 45.5988L38.0939 45.6145L38.0207 45.6296L37.9472 45.6439L37.8735 45.6575L37.7996 45.6704L37.7254 45.6826L37.6511 45.694L37.5765 45.7047L37.5018 45.7147L37.4268 45.724L37.3517 45.7325L37.2764 45.7402L37.2009 45.7473L37.1253 45.7535L37.0495 45.7591L36.9735 45.7638L36.8975 45.7679L36.8213 45.7712L36.745 45.7737L36.6685 45.7754L36.592 45.7764L36.5154 45.7767L36.4387 45.7762L36.3619 45.7749L36.285 45.7728L36.2081 45.77L36.1311 45.7664L36.054 45.762L35.9769 45.7569L35.8998 45.751L35.8227 45.7443L35.7455 45.7368L35.6684 45.7286L35.5912 45.7195L35.5141 45.7097L35.4369 45.6991L35.3598 45.6878L35.2827 45.6756L35.2057 45.6627L35.1287 45.649L35.0518 45.6345L34.9749 45.6193L34.8981 45.6032L34.8214 45.5864L34.7448 45.5687L34.6683 45.5503L34.5918 45.5312L34.5155 45.5112L34.4394 45.4904L34.3633 45.4689L34.2875 45.4466L34.2117 45.4235L34.1361 45.3996L34.0607 45.375L33.9854 45.3496L33.9104 45.3234L33.8355 45.2964L33.7608 45.2686L33.6864 45.2401L33.6121 45.2108L33.5381 45.1807L33.4643 45.1499L33.3908 45.1183L33.3175 45.0859L33.2444 45.0528L33.1717 45.0189L33.0991 44.9842L33.0269 44.9488L32.955 44.9126L32.8834 44.8757L32.8121 44.838L32.7411 44.7996L32.6704 44.7604L32.6001 44.7205L32.53 44.6798L32.4604 44.6384L32.3911 44.5963L32.3222 44.5534L32.2536 44.5098L32.1854 44.4655L32.1176 44.4204L32.0502 44.3746L31.9833 44.3281L31.9167 44.2809L31.8505 44.233L31.7848 44.1843L31.7195 44.135L31.6547 44.085L31.5903 44.0342L31.5264 43.9828L31.4629 43.9307L31.3999 43.8779L31.3374 43.8244L31.2754 43.7702L31.2139 43.7154L31.1529 43.6599L31.0924 43.6037L31.0324 43.5469L30.973 43.4894L30.914 43.4313L30.8557 43.3725L30.7979 43.3131L30.7406 43.253L30.6839 43.1924L30.6278 43.131L30.5723 43.0691L30.5173 43.0066L30.463 42.9434L30.4092 42.8797L30.356 42.8153L30.3035 42.7503L30.2516 42.6848L30.2003 42.6187L30.1496 42.552L30.0996 42.4847L30.0503 42.4169L30.0016 42.3485L29.9535 42.2795L29.9061 42.21L29.8594 42.14L29.8134 42.0694L29.7681 41.9983L29.7234 41.9267L29.6795 41.8546L29.6362 41.7819L29.5937 41.7088L29.5519 41.6351L29.5108 41.561L29.4704 41.4864L29.4308 41.4113L29.3919 41.3357L29.3537 41.2597L29.3163 41.1833L29.2797 41.1063L29.2438 41.029L29.2087 40.9512L29.1744 40.873L29.1408 40.7943L29.108 40.7153L29.076 40.6358L29.0448 40.556L29.0144 40.4757L28.9849 40.3951L28.9561 40.3141L28.9281 40.2328L28.9009 40.1511L28.8746 40.069L28.8491 39.9866L28.8244 39.9039L28.8005 39.8208L28.7775 39.7374L28.7554 39.6537L28.734 39.5697L28.7136 39.4854L28.694 39.4009L28.6752 39.316L28.6573 39.2309L28.6403 39.1455L28.6241 39.0599L28.6088 38.974L28.5944 38.8879L28.5809 38.8016L28.5682 38.715L28.5564 38.6283L28.5456 38.5413L28.5356 38.4542L28.5265 38.3668L28.5183 38.2793L28.511 38.1916L28.5046 38.1038L28.4991 38.0158L28.4945 37.9277L28.4908 37.8395L28.488 37.7511L28.4862 37.6626L28.4853 37.5741L28.4852 37.4854L28.4861 37.3966L28.488 37.3078L28.4907 37.2189L28.4944 37.1299L28.499 37.0409L28.5045 36.9519L28.5109 36.8628L28.5183 36.7737L28.5266 36.6846L28.5358 36.5955L28.546 36.5064L28.5571 36.4173L28.5691 36.3283L28.5821 36.2393L28.596 36.1503L28.6109 36.0614L28.6266 35.9725L28.6433 35.8837L28.661 35.795L28.6796 35.7064L28.6991 35.6179L28.7195 35.5295L28.7409 35.4413L28.7632 35.3531L28.7865 35.2651L28.8107 35.1773L28.8358 35.0896L28.8618 35.002L28.8888 34.9147L28.9167 34.8275L28.9455 34.7405L28.9753 34.6538L29.006 34.5672L29.0376 34.4809L29.0701 34.3948L29.1036 34.309L29.138 34.2234L29.1733 34.138L29.2095 34.053L29.2466 33.9682L29.2847 33.8837L29.3236 33.7995L29.3635 33.7156L29.4042 33.6321L29.4459 33.5488L29.4884 33.4659L29.5319 33.3834L29.5762 33.3012L29.6215 33.2194L29.6676 33.1379L29.7146 33.0568L29.7625 32.9762L29.8113 32.8959L29.8609 32.816L29.9115 32.7366L29.9629 32.6575L30.0151 32.5789L30.0682 32.5008L30.1222 32.4231L30.177 32.3459L30.2327 32.2692L30.2892 32.1929L30.3465 32.1171L30.4047 32.0419L30.4637 31.9671L30.5236 31.8929L30.5843 31.8191L30.6457 31.746L30.708 31.6733L30.7711 31.6012L30.835 31.5297L30.8997 31.4587L30.9652 31.3884L31.0315 31.3186L31.0986 31.2494L31.1664 31.1808L31.235 31.1128L31.3044 31.0454L31.3745 30.9787L31.4454 30.9126L31.517 30.8471L31.5893 30.7823L31.6624 30.7181L31.7363 30.6547L31.8108 30.5918L31.8861 30.5297L31.962 30.4683L32.0387 30.4075L32.116 30.3475L32.1941 30.2882L32.2728 30.2296L32.3522 30.1717L32.4323 30.1146L32.513 30.0582L32.5944 30.0025L32.6765 29.9476L32.7591 29.8935L32.8424 29.8402L32.9264 29.7876L33.0109 29.7358L33.0961 29.6848L33.1818 29.6346L33.2682 29.5852L33.3551 29.5366L33.4426 29.4888L33.5307 29.4419L33.6193 29.3958L33.7085 29.3505L33.7982 29.3061L33.8885 29.2625L33.9793 29.2198L34.0706 29.1779L34.1624 29.1369L34.2547 29.0968L34.3476 29.0575L34.4409 29.0191L34.5346 28.9817L34.6289 28.9451L34.7236 28.9094L34.8187 28.8746L34.9143 28.8408L35.0104 28.8078L35.1068 28.7758L35.2037 28.7447L35.3009 28.7145L35.3986 28.6853L35.4966 28.657L35.595 28.6297L35.6938 28.6033L35.7929 28.5778L35.8924 28.5533L35.9922 28.5298L36.0924 28.5073L36.1928 28.4857L36.2936 28.4651L36.3946 28.4455L36.4453 28.4361ZM37.6872 35.6964L36.5346 35.9718L36.4669 30.2623L36.4126 30.2745L36.3308 30.2938L36.2491 30.3139L36.168 30.3347L36.087 30.3563L36.0065 30.3787L35.926 30.402L35.8463 30.4258L35.7664 30.4506L35.6875 30.4759L35.6084 30.5022L35.5298 30.5292L35.4516 30.5569L35.3737 30.5853L35.2965 30.6144L35.2194 30.6444L35.1427 30.675L35.0665 30.7063L34.9904 30.7385L34.9153 30.7711L34.8402 30.8047L34.7658 30.8388L34.6915 30.8738L34.6179 30.9093L34.5445 30.9456L34.4719 30.9825L34.3996 31.0201L34.3278 31.0584L34.2565 31.0973L34.1856 31.1369L34.1152 31.1772L34.0456 31.218L33.9759 31.2597L33.9071 31.3018L33.8389 31.3446L33.7711 31.388L33.7037 31.4321L33.637 31.4768L33.5708 31.5221L33.5051 31.5679L33.4401 31.6143L33.3754 31.6614L33.3114 31.7091L33.248 31.7573L33.1851 31.8061L33.1229 31.8553L33.0613 31.9052L33.0001 31.9557L32.9395 32.0068L32.8797 32.0582L32.8204 32.1103L32.7617 32.1628L32.7036 32.2159L32.6461 32.2696L32.5893 32.3237L32.5331 32.3782L32.4774 32.4334L32.4225 32.4889L32.3682 32.545L32.3146 32.6014L32.2614 32.6586L32.2091 32.7159L32.1574 32.7738L32.1063 32.8322L32.056 32.8908L32.0062 32.9501L31.9573 33.0095L31.9088 33.0697L31.8612 33.13L31.8141 33.1909L31.7678 33.2522L31.7222 33.3137L31.6772 33.3756L31.633 33.4379L31.5894 33.5007L31.5465 33.5637L31.5044 33.6272L31.463 33.6908L31.4223 33.7548L31.3822 33.8193L31.343 33.8839L31.3043 33.9491L31.2665 34.0142L31.2293 34.0799L31.1928 34.1458L31.1572 34.2119L31.1222 34.2783L31.088 34.345L31.0544 34.4121L31.0217 34.4791L30.9896 34.5467L30.9583 34.6143L30.9278 34.6822L30.8979 34.7503L30.8688 34.8187L30.8405 34.8871L30.8129 34.9559L30.7861 35.0248L30.7599 35.0939L30.7346 35.163L30.71 35.2325L30.6861 35.3021L30.663 35.3718L30.6406 35.4416L30.619 35.5117L30.5981 35.5818L30.5781 35.6519L30.5587 35.7223L30.54 35.7928L30.5222 35.8633L30.5051 35.9339L30.4887 36.0046L30.4731 36.0754L30.4583 36.1463L30.4442 36.2171L30.4308 36.288L30.4182 36.3591L30.4064 36.43L30.3953 36.501L30.3849 36.5722L30.3753 36.6431L30.3665 36.7143L30.3584 36.7852L30.351 36.8563L30.3444 36.9275L30.3385 36.9984L30.3334 37.0694L30.329 37.1404L30.3253 37.2112L30.3224 37.282L30.3202 37.3527L30.3188 37.4235L30.318 37.4941L30.3181 37.5646L30.3188 37.635L30.3203 37.7054L30.3225 37.7756L30.3254 37.8457L30.329 37.9157L30.3334 37.9855L30.3385 38.0552L30.3443 38.1248L30.3508 38.1942L30.358 38.2636L30.3659 38.3325L30.3745 38.4016L30.3838 38.4702L30.3939 38.5389L30.4046 38.6072L30.416 38.6754L30.4281 38.7435L30.4409 38.8112L30.4544 38.8788L30.4685 38.946L30.4834 39.0132L30.4989 39.08L30.5151 39.1467L30.5319 39.2129L30.5495 39.2792L30.5676 39.3449L30.5864 39.4106L30.6059 39.4758L30.626 39.5409L30.6468 39.6056L30.6682 39.6699L30.6903 39.7342L30.713 39.798L30.7363 39.8614L30.7602 39.9247L30.7848 39.9876L30.81 40.0501L30.8358 40.1123L30.8621 40.1741L30.8892 40.2357L30.9168 40.2969L30.945 40.3577L30.9738 40.4181L31.0031 40.4781L31.0332 40.538L31.0636 40.5972L31.0947 40.6561L31.1264 40.7147L31.1587 40.7728L31.1915 40.8306L31.2248 40.888L31.2587 40.9448L31.2932 41.0014L31.3281 41.0575L31.3636 41.1131L31.3997 41.1684L31.4362 41.2232L31.4733 41.2777L31.5108 41.3314L31.5489 41.385L31.5875 41.438L31.6265 41.4905L31.6662 41.5427L31.7062 41.5943L31.7467 41.6454L31.7877 41.6961L31.8292 41.7464L31.871 41.796L31.9135 41.8453L31.9563 41.8941L31.9995 41.9423L32.0434 41.9901L32.0874 42.0372L32.132 42.0841L32.177 42.1303L32.2223 42.176L32.2682 42.2212L32.3144 42.2659L32.361 42.3101L32.408 42.3537L32.4554 42.3968L32.5032 42.4394L32.5513 42.4814L32.5998 42.5229L32.6486 42.5639L32.6978 42.6043L32.7474 42.6442L32.7974 42.6835L32.8475 42.7222L32.8981 42.7604L32.949 42.7981L33.0002 42.8352L33.0517 42.8717L33.1035 42.9077L33.1556 42.9431L33.208 42.9779L33.2606 43.0121L33.3135 43.0458L33.3669 43.079L33.4203 43.1114L33.474 43.1434L33.5281 43.1748L33.5822 43.2055L33.6366 43.2357L33.6915 43.2654L33.7464 43.2944L33.8015 43.3228L33.8568 43.3506L33.9125 43.3779L33.9681 43.4045L34.0242 43.4306L34.0803 43.4561L34.1365 43.4809L34.1931 43.5052L34.2498 43.5289L34.3065 43.552L34.3635 43.5745L34.4206 43.5963L34.478 43.6176L34.5352 43.6383L34.5929 43.6584L34.6504 43.6778L34.7081 43.6967L34.766 43.715L34.824 43.7327L34.882 43.7497L34.9401 43.7662L34.9984 43.782L35.0567 43.7973L35.115 43.8119L35.1734 43.826L35.2318 43.8394L35.2903 43.8522L35.3489 43.8645L35.4075 43.8761L35.4661 43.8872L35.5247 43.8976L35.5834 43.9075L35.6421 43.9167L35.7008 43.9254L35.7593 43.9334L35.818 43.9408L35.8766 43.9477L35.9353 43.954L35.9939 43.9596L36.0525 43.9647L36.111 43.9692L36.1694 43.9731L36.2279 43.9764L36.2862 43.9791L36.3444 43.9813L36.4028 43.9828L36.4608 43.9838L36.5188 43.9842L36.5768 43.984L36.6346 43.9833L36.6925 43.9819L36.7502 43.98L36.8076 43.9776L36.865 43.9745L36.9225 43.9709L36.9795 43.9667L37.0366 43.962L37.0934 43.9567L37.1502 43.9509L37.2068 43.9444L37.2631 43.9375L37.3195 43.93L37.3755 43.9219L37.4313 43.9133L37.4872 43.9042L37.5427 43.8945L37.598 43.8843L37.6532 43.8735L37.7082 43.8622L37.7628 43.8504L37.8172 43.8381L37.8716 43.8252L37.9257 43.8118L37.9795 43.798L38.0331 43.7836L38.0864 43.7687L38.1397 43.7532L38.1925 43.7373L38.2449 43.7209L38.2975 43.7039L38.3495 43.6865L38.4013 43.6687L38.4528 43.6503L38.504 43.6314L38.5551 43.612L38.6058 43.5922L38.6561 43.5719L38.7062 43.5512L38.756 43.5299L38.8056 43.5082L38.8546 43.4861L38.9036 43.4635L38.9521 43.4405L39.0002 43.417L39.0482 43.3931L39.0956 43.3688L39.1429 43.344L39.1898 43.3187L39.2363 43.2931L39.2824 43.2671L39.3283 43.2406L39.3738 43.2137L39.4188 43.1864L39.4635 43.1587L39.5079 43.1306L39.5519 43.1022L39.5956 43.0733L39.6388 43.0441L39.6817 43.0144L39.7242 42.9844L39.7662 42.9541L39.8079 42.9233L39.8492 42.8922L39.8901 42.8607L39.9306 42.8289L39.9708 42.7967L40.0104 42.7643L40.0497 42.7315L40.0885 42.6983L40.1269 42.6648L40.165 42.631L40.2026 42.5968L40.2398 42.5624L40.2764 42.5277L40.3128 42.4926L40.3487 42.4572L40.3842 42.4216L40.4192 42.3857L40.4537 42.3494L40.4878 42.313L40.5216 42.2761L40.5547 42.2392L40.5876 42.2018L40.6199 42.1642L40.6517 42.1265L40.6833 42.0883L40.7141 42.0501L40.7447 42.0115L40.7748 41.9728L40.8043 41.9338L40.8335 41.8945L40.8621 41.8552L40.8903 41.8154L40.9181 41.7755L40.9453 41.7356L40.9721 41.6952L40.9985 41.6548L41.0242 41.6142L41.0496 41.5734L41.0745 41.5324L41.0989 41.4912L41.1229 41.4499L41.1463 41.4084L41.1693 41.3668L41.1918 41.3249L41.2138 41.2831L41.2353 41.241L41.2564 41.1988L41.277 41.1565L41.2971 41.1139L41.3167 41.0714L41.3358 41.0287L41.3544 40.986L41.3726 40.943L41.3902 40.9001L41.4075 40.8568L41.4241 40.8139L41.4404 40.7703L41.456 40.7274L41.4713 40.6838L41.4861 40.6402L41.5003 40.5968L41.5141 40.5532L41.5274 40.5097L41.5403 40.4657L41.5525 40.4223L41.5645 40.3782L41.5758 40.3348L41.5867 40.2908L41.5971 40.2468L41.607 40.2031L41.6164 40.1595L41.6254 40.1153L41.6339 40.0716L41.6419 40.0275L41.6494 39.9839L41.6565 39.9401L41.6631 39.8962L41.6692 39.8523L41.6748 39.8085L41.68 39.7649L41.6847 39.7214L41.6889 39.6775L41.6927 39.634L41.696 39.5904L41.6988 39.5469L41.7012 39.5035L41.7031 39.4602L41.7045 39.4171L41.7055 39.3737L41.7061 39.3304L41.7062 39.2875L41.7058 39.2446L41.705 39.2018L41.7037 39.1591L41.702 39.1162L41.6998 39.0741L41.6972 39.0311L41.6942 38.9892L41.6907 38.9471L41.6868 38.9047L41.6824 38.8628L41.6777 38.8213L41.6724 38.7792L41.6668 38.738L41.6607 38.6965L41.6543 38.6556L41.6473 38.6143L41.64 38.5733L41.6323 38.5327L41.6242 38.4922L41.6156 38.4516L41.6066 38.4115L41.5973 38.3714L41.5875 38.3316L41.5774 38.2921L41.5667 38.2523L41.5559 38.2133L41.5445 38.1739L41.5328 38.1352L41.5207 38.0965L41.5082 38.0581L41.4953 38.0198L41.482 37.9816L41.4685 37.944L41.4545 37.9065L41.4401 37.8689L41.4254 37.8319L41.4103 37.7947L41.395 37.7584L41.3791 37.7217L41.3631 37.6856L41.3466 37.6498L41.3298 37.614L41.3127 37.5786L41.2952 37.5434L41.2774 37.5084L41.2593 37.4738L41.2408 37.4394L41.2221 37.4053L41.203 37.3714L41.1835 37.3378L41.1639 37.3045L41.1439 37.2715L41.1235 37.2386L41.1029 37.2063L41.082 37.1741L41.0608 37.1422L41.0393 37.1105L41.0176 37.0793L40.9955 37.0482L40.9732 37.0175L40.9506 36.9871L40.9277 36.957L40.9047 36.9272L40.8812 36.8976L40.8576 36.8685L40.8337 36.8396L40.8096 36.811L40.7852 36.7827L40.7607 36.7548L40.7358 36.7272L40.7107 36.6999L40.6854 36.6728L40.6599 36.6462L40.6341 36.6199L40.6081 36.5938L40.582 36.5682L40.5556 36.5429L40.5291 36.5179L40.5021 36.4931L40.4753 36.4688L40.4481 36.4447L40.4208 36.4211L40.3932 36.3977L40.3655 36.3748L40.3376 36.3521L40.3096 36.3298L40.2814 36.3078L40.253 36.2861L40.2245 36.2649L40.1958 36.2439L40.1669 36.2233L40.138 36.2031L40.1089 36.1831L40.0797 36.1636L40.0503 36.1444L40.0207 36.1255L39.9912 36.107L39.9613 36.0888L39.9315 36.071L39.9016 36.0536L39.8715 36.0365L39.8412 36.0197L39.811 36.0033L39.7807 35.9872L39.7502 35.9715L39.7198 35.9562L39.689 35.9411L39.6584 35.9265L39.6276 35.9123L39.5968 35.8983L39.5659 35.8847L39.5348 35.8714L39.504 35.8586L39.4728 35.8461L39.4416 35.8339L39.4105 35.8221L39.3793 35.8106L39.3481 35.7995L39.3168 35.7887L39.2855 35.7782L39.2543 35.7682L39.2229 35.7584L39.1915 35.749L39.1603 35.74L39.1287 35.7313L39.0975 35.723L39.0661 35.715L39.0347 35.7073L39.0033 35.7L38.972 35.693L38.9406 35.6864L38.9093 35.6801L38.8781 35.6741L38.8469 35.6685L38.8155 35.6632L38.7845 35.6583L38.7531 35.6537L38.7222 35.6494L38.691 35.6454L38.66 35.6418L38.6292 35.6385L38.5982 35.6356L38.5674 35.6329L38.5366 35.6306L38.5059 35.6286L38.4752 35.6269L38.4446 35.6256L38.4143 35.6246L38.3838 35.6238L38.3535 35.6234L38.3232 35.6233L38.2931 35.6236L38.263 35.6241L38.2331 35.6249L38.2032 35.6261L38.1736 35.6275L38.1438 35.6293L38.1144 35.6313L38.085 35.6336L38.0557 35.6363L38.0266 35.6392L37.9974 35.6424L37.9686 35.6459L37.9398 35.6497L37.9112 35.6538L37.8826 35.6582L37.8543 35.6628L37.826 35.6677L37.7981 35.6729L37.77 35.6784L37.7423 35.6841L37.7146 35.6901L37.6872 35.6964Z" fill="white"/>
</g>
</svg>
