<svg width="184" height="74" viewBox="0 0 184 74" fill="none" xmlns="http://www.w3.org/2000/svg">
<g opacity="0.4">
<g clip-path="url(#clip0_183_5245)">
<path d="M50.5664 23.2754H54.5611V45.0644H61.1341V48.696H50.5664V23.2754Z" fill="white"/>
<path d="M68.6818 49.059C66.7208 49.059 65.2198 48.5022 64.1787 47.3885C63.1377 46.2748 62.6172 44.7012 62.6172 42.6675V29.3036C62.6172 27.2699 63.1377 25.6963 64.1787 24.5826C65.2198 23.4689 66.7208 22.9121 68.6818 22.9121C70.6428 22.9121 72.1438 23.4689 73.1849 24.5826C74.2259 25.6963 74.7464 27.2699 74.7464 29.3036V42.6675C74.7464 44.7012 74.2259 46.2748 73.1849 47.3885C72.1438 48.5022 70.6428 49.059 68.6818 49.059ZM68.6818 45.4275C70.0618 45.4275 70.7518 44.5922 70.7518 42.9217V29.0494C70.7518 27.3789 70.0618 26.5436 68.6818 26.5436C67.3018 26.5436 66.6118 27.3789 66.6118 29.0494V42.9217C66.6118 44.5922 67.3018 45.4275 68.6818 45.4275Z" fill="white"/>
<path d="M83.112 49.059C81.1752 49.059 79.6983 48.5143 78.6814 47.4248C77.6646 46.3112 77.1562 44.7254 77.1562 42.6675V29.3036C77.1562 27.2457 77.6646 25.6721 78.6814 24.5826C79.6983 23.4689 81.1752 22.9121 83.112 22.9121C85.0488 22.9121 86.5256 23.4689 87.5424 24.5826C88.5593 25.6721 89.0676 27.2457 89.0676 29.3036V31.4825H85.2908V29.0494C85.2908 27.3789 84.6008 26.5436 83.2208 26.5436C81.8409 26.5436 81.1509 27.3789 81.1509 29.0494V42.9581C81.1509 44.6044 81.8409 45.4275 83.2208 45.4275C84.6008 45.4275 85.2908 44.6044 85.2908 42.9581V37.9829H83.2935V34.3514H89.0676V42.6675C89.0676 44.7254 88.5593 46.3112 87.5424 47.4248C86.5256 48.5143 85.0488 49.059 83.112 49.059Z" fill="white"/>
<path d="M97.4083 49.059C95.4473 49.059 93.9463 48.5022 92.9053 47.3885C91.8642 46.2748 91.3438 44.7012 91.3438 42.6675V29.3036C91.3438 27.2699 91.8642 25.6963 92.9053 24.5826C93.9463 23.4689 95.4473 22.9121 97.4083 22.9121C99.3694 22.9121 100.87 23.4689 101.911 24.5826C102.953 25.6963 103.473 27.2699 103.473 29.3036V42.6675C103.473 44.7012 102.953 46.2748 101.911 47.3885C100.87 48.5022 99.3694 49.059 97.4083 49.059ZM97.4083 45.4275C98.7883 45.4275 99.4783 44.5922 99.4783 42.9217V29.0494C99.4783 27.3789 98.7883 26.5436 97.4083 26.5436C96.0284 26.5436 95.3384 27.3789 95.3384 29.0494V42.9217C95.3384 44.5922 96.0284 45.4275 97.4083 45.4275Z" fill="white"/>
<path d="M106.18 23.2754H110.174V48.696H106.18V23.2754Z" fill="white"/>
<path d="M113.168 23.2754H119.051C121.036 23.2754 122.525 23.808 123.518 24.8733C124.511 25.9385 125.007 27.5001 125.007 29.5579V32.0636C125.007 34.1215 124.511 35.683 123.518 36.7483C122.525 37.8135 121.036 38.3461 119.051 38.3461H117.163V48.696H113.168V23.2754ZM119.051 34.7146C119.705 34.7146 120.189 34.533 120.504 34.1699C120.843 33.8067 121.012 33.1894 121.012 32.3178V29.3037C121.012 28.4321 120.843 27.8148 120.504 27.4516C120.189 27.0885 119.705 26.9069 119.051 26.9069H117.163V34.7146H119.051Z" fill="white"/>
<path d="M132.512 49.059C130.576 49.059 129.111 48.5143 128.118 47.4248C127.126 46.3112 126.629 44.7254 126.629 42.6675V41.2149H130.406V42.9581C130.406 44.6044 131.096 45.4275 132.476 45.4275C133.154 45.4275 133.662 45.2338 134.001 44.8465C134.364 44.4349 134.546 43.7812 134.546 42.8854C134.546 41.8202 134.304 40.8881 133.82 40.0892C133.336 39.266 132.44 38.2855 131.132 37.1476C129.486 35.695 128.336 34.3877 127.682 33.2256C127.029 32.0393 126.702 30.7078 126.702 29.231C126.702 27.2215 127.21 25.6721 128.227 24.5826C129.244 23.4689 130.721 22.9121 132.658 22.9121C134.57 22.9121 136.011 23.4689 136.979 24.5826C137.972 25.6721 138.468 27.2457 138.468 29.3036V30.3567H134.691V29.0494C134.691 28.1778 134.522 27.5483 134.183 27.161C133.844 26.7494 133.348 26.5436 132.694 26.5436C131.362 26.5436 130.697 27.3547 130.697 28.9767C130.697 29.8967 130.939 30.7562 131.423 31.5551C131.931 32.354 132.839 33.3224 134.147 34.4603C135.817 35.9129 136.967 37.2324 137.597 38.4187C138.226 39.605 138.541 40.997 138.541 42.5949C138.541 44.677 138.02 46.2748 136.979 47.3885C135.962 48.5022 134.473 49.059 132.512 49.059Z" fill="white"/>
<path d="M146.64 49.0591C144.703 49.0591 143.226 48.5144 142.209 47.4249C141.192 46.3113 140.684 44.7255 140.684 42.6676V23.2754H144.679V42.9582C144.679 43.8297 144.848 44.4592 145.187 44.8466C145.55 45.2339 146.059 45.4276 146.712 45.4276C147.366 45.4276 147.862 45.2339 148.201 44.8466C148.564 44.4592 148.746 43.8297 148.746 42.9582V23.2754H152.595V42.6676C152.595 44.7255 152.087 46.3113 151.07 47.4249C150.053 48.5144 148.576 49.0591 146.64 49.0591Z" fill="white"/>
<path d="M155.441 23.2754H161.143L163.685 41.4692H163.757L166.3 23.2754H172.001V48.696H168.224V29.449H168.152L165.246 48.696H161.905L159 29.449H158.928V48.696H155.441V23.2754Z" fill="white"/>
<path d="M12 48.6953C16.9145 48.6953 20.8984 44.7113 20.8984 39.7969C20.8984 34.8824 16.9145 30.8984 12 30.8984V37.1273C13.4743 37.1273 14.6695 38.3225 14.6695 39.7969C14.6695 41.2712 13.4743 42.4664 12 42.4664V48.6953Z" fill="white"/>
<path d="M41.6614 33.8646C40.1408 33.3829 38.5215 33.123 36.8414 33.123C28.0363 33.123 20.8984 40.261 20.8984 49.066C20.8984 49.9498 20.9704 50.8168 21.1086 51.6614H31.0145C30.6609 50.8686 30.4643 49.9903 30.4643 49.066C30.4643 45.544 33.3194 42.6888 36.8414 42.6888C38.7664 42.6888 40.4921 43.5417 41.6614 44.8902V33.8646Z" fill="white"/>
<path d="M13.5664 22C14.3041 28.6737 19.9622 33.8646 26.8326 33.8646C33.7029 33.8646 39.361 28.6737 40.0987 22H30.5532C29.9639 23.4773 28.5201 24.5212 26.8326 24.5212C25.145 24.5212 23.7013 23.4773 23.1119 22H13.5664Z" fill="white"/>
</g>
</g>
<defs>
<clipPath id="clip0_183_5245">
<rect width="160" height="30" fill="white" transform="translate(12 22)"/>
</clipPath>
</defs>
</svg>
