<svg width="184" height="74" viewBox="0 0 184 74" fill="none" xmlns="http://www.w3.org/2000/svg">
<g opacity="0.4">
<path d="M38.2148 26.2367H40.73V43.6367H48.2754V46.1367H38.2148V26.2367ZM56.1101 26.2367C57.6025 26.2367 59.0613 26.6766 60.3022 27.5007C61.543 28.3248 62.5102 29.4961 63.0813 30.8666C63.6523 32.2371 63.8017 33.7451 63.5106 35.1998C63.2195 36.6547 62.5009 37.9911 61.4455 39.04C60.3903 40.089 59.0458 40.8032 57.5821 41.0926C56.1186 41.382 54.6014 41.2335 53.2226 40.6658C51.8438 40.0981 50.6655 39.1368 49.8364 37.9035C49.0072 36.6701 48.5647 35.2201 48.5647 33.7367C48.5647 32.7518 48.7599 31.7765 49.139 30.8666C49.5182 29.9566 50.074 29.1298 50.7748 28.4335C51.4754 27.737 52.3071 27.1845 53.2226 26.8076C54.138 26.4307 55.1193 26.2367 56.1101 26.2367ZM56.1101 38.7367C57.105 38.7367 58.0776 38.4435 58.9049 37.8941C59.7321 37.3446 60.3768 36.5637 60.7575 35.6501C61.1383 34.7365 61.2379 33.7312 61.0437 32.7612C60.8497 31.7913 60.3706 30.9005 59.6671 30.2012C58.9636 29.502 58.0673 29.0257 57.0916 28.8328C56.1157 28.6398 55.1043 28.7388 54.1852 29.1173C53.266 29.4957 52.4803 30.1366 51.9276 30.9588C51.3749 31.7811 51.0798 32.7478 51.0798 33.7367C51.0865 35.0585 51.6193 36.3238 52.562 37.2561C53.5047 38.1883 54.7804 38.7117 56.1101 38.7117V38.7367ZM51.0798 43.6617H61.1404V46.1617H51.0798V43.6617ZM83.2738 46.1617H80.7586V44.3742C79.1366 45.5027 77.2052 46.1092 75.2253 46.1117C73.537 46.123 71.873 45.7117 70.3867 44.9158C68.9002 44.1198 67.6392 42.965 66.7199 41.5575C65.8005 40.15 65.2522 38.5351 65.1257 36.8616C64.9991 35.1882 65.2982 33.51 65.9956 31.9817C66.6929 30.4533 67.766 29.124 69.1159 28.1162C70.4659 27.1083 72.0493 26.4543 73.7202 26.2146C75.3913 25.9747 77.0962 26.1568 78.6777 26.744C80.2594 27.3311 81.667 28.3043 82.7708 29.5742L80.9221 31.2117C80.0826 30.2787 79.0215 29.5695 77.8355 29.1486C76.6496 28.7276 75.3766 28.6083 74.1325 28.8017C72.8882 28.9951 71.7126 29.495 70.7125 30.2556C69.7125 31.0163 68.9198 32.0136 68.407 33.1568C67.894 34.3 67.6771 35.5525 67.7759 36.8003C67.8748 38.0482 68.2861 39.2516 68.9728 40.3008C69.6594 41.3501 70.5992 42.212 71.7067 42.8077C72.8141 43.4035 74.0541 43.7142 75.3133 43.7117C76.3584 43.7138 77.3916 43.4916 78.3423 43.0601C79.2929 42.6286 80.1386 41.9981 80.8215 41.2117H74.0306V38.7117H83.2989L83.2738 46.1617ZM92.5295 26.2867C94.0219 26.2867 95.4807 26.7266 96.7215 27.5507C97.9624 28.3748 98.9296 29.5461 99.5007 30.9166C100.072 32.2871 100.221 33.7951 99.93 35.2498C99.6389 36.7047 98.9203 38.0411 97.8649 39.09C96.8097 40.139 95.4652 40.8532 94.0015 41.1426C92.538 41.432 91.0208 41.2835 89.642 40.7158C88.2632 40.1481 87.0849 39.1868 86.2557 37.9535C85.4266 36.7201 84.9841 35.2701 84.9841 33.7867C84.9774 32.7955 85.1686 31.8128 85.5463 30.8955C85.9241 29.9781 86.4811 29.1442 87.1851 28.4422C87.8891 27.7401 88.7261 27.1837 89.6478 26.8051C90.5695 26.4266 91.5574 26.2333 92.5547 26.2367L92.5295 26.2867ZM92.5295 38.7867C93.5244 38.7867 94.497 38.4935 95.3243 37.9441C96.1515 37.3946 96.7962 36.6137 97.1769 35.7001C97.5577 34.7865 97.6573 33.7812 97.4631 32.8112C97.2691 31.8413 96.79 30.9505 96.0865 30.2512C95.383 29.552 94.4867 29.0757 93.511 28.8828C92.5351 28.6898 91.5237 28.7888 90.6046 29.1673C89.6854 29.5457 88.8997 30.1866 88.347 31.0088C87.7943 31.8311 87.4992 32.7978 87.4992 33.7867C87.5191 35.1041 88.0613 36.3605 89.008 37.2827C89.9545 38.2048 91.2292 38.7185 92.5547 38.7117L92.5295 38.7867ZM87.4992 43.7117H97.5598V46.2117H87.4992V43.7117ZM102.754 26.2367H105.269V46.1117H102.754V26.2367ZM108.752 26.2367H111.267C111.397 26.2231 111.528 26.2231 111.657 26.2367C112.711 26.1231 113.776 26.2313 114.785 26.5542C115.793 26.8772 116.722 27.4076 117.511 28.111C118.299 28.8143 118.93 29.675 119.362 30.6367C119.793 31.5985 120.017 32.6398 120.017 33.693C120.017 34.7461 119.793 35.7875 119.362 36.7492C118.93 37.711 118.299 38.5716 117.511 39.275C116.722 39.9783 115.793 40.5087 114.785 40.8317C113.776 41.1546 112.711 41.2628 111.657 41.1492H111.267V46.1492H108.752V26.2367ZM111.267 28.7367V38.6242H111.657C112.368 38.7182 113.09 38.6603 113.776 38.4542C114.462 38.2482 115.096 37.8988 115.635 37.4296C116.174 36.9603 116.606 36.382 116.902 35.7332C117.198 35.0845 117.352 34.3803 117.352 33.668C117.352 32.9556 117.198 32.2515 116.902 31.6027C116.606 30.954 116.174 30.3756 115.635 29.9063C115.096 29.437 114.462 29.0877 113.776 28.8816C113.09 28.6756 112.368 28.6177 111.657 28.7117C111.52 28.7258 111.385 28.7552 111.255 28.7992L111.267 28.7367ZM129.389 27.6742L127.528 29.1367C127.207 28.8032 126.797 28.5677 126.346 28.458C125.894 28.3482 125.421 28.3687 124.981 28.5171C124.542 28.6653 124.154 28.9353 123.863 29.2953C123.572 29.6553 123.391 30.0903 123.34 30.5492V30.7492C123.34 31.8492 124.107 32.5867 125.604 32.6867C131.363 33.0367 134.004 35.7242 134.004 39.2742V39.4992C133.856 40.9042 133.304 42.2372 132.415 43.3397C131.526 44.4422 130.338 45.2676 128.99 45.718C127.643 46.1682 126.194 46.2245 124.816 45.8798C123.437 45.5353 122.187 44.8045 121.215 43.7742L123.139 42.2992C123.587 42.7763 124.134 43.1508 124.742 43.397C125.35 43.643 126.004 43.7547 126.66 43.7242C127.871 43.7877 129.06 43.3836 129.979 42.5962C130.898 41.809 131.475 40.6993 131.59 39.4992V39.3242C131.59 35.9867 128.295 35.3742 125.44 35.0992C122.799 34.8492 120.9 33.2117 120.9 30.8492V30.7492C120.994 29.5192 121.558 28.3717 122.478 27.5437C123.398 26.7156 124.602 26.2701 125.843 26.2992C126.5 26.28 127.154 26.3978 127.763 26.6455C128.372 26.8931 128.921 27.2648 129.377 27.7367L129.389 27.6742ZM143.851 43.5742C146.983 43.5742 149.46 40.2117 149.46 36.0742V26.0742H151.975V36.0742C151.975 41.5742 148.353 46.0117 143.902 46.0117C139.45 46.0117 135.828 41.5742 135.828 36.0742V26.0742H138.343V36.0742C138.242 40.2742 140.72 43.6367 143.839 43.6367L143.851 43.5742ZM171.279 46.0742H168.764V33.6992L162.966 41.1992L157.169 33.6992V46.1117H154.654V26.2367L162.954 37.0992L171.254 26.2367L171.279 46.0742Z" fill="white"/>
<path d="M26.1395 23.2492C26.1395 21.4457 25.4187 19.7161 24.1358 18.4409C22.8528 17.1656 21.1126 16.4492 19.2982 16.4492C17.4838 16.4492 15.7438 17.1656 14.4608 18.4409C13.1778 19.7161 12.457 21.4457 12.457 23.2492V43.8117L18.091 47.8242V57.5992H20.5055V47.8242L26.1395 43.8117V23.2492ZM23.7249 34.7492L20.5055 37.9492V34.9492L23.7249 31.7492V34.7492ZM14.9219 31.7492L18.1413 34.9492V37.9492L14.9219 34.7492V31.7492ZM23.7249 28.3492L19.2982 32.7492L14.8716 28.2492V25.2492L19.2982 29.6492L23.7249 25.2492V28.3492ZM19.2982 18.8492C20.2718 18.8535 21.2171 19.1749 21.9893 19.7641C22.7616 20.3534 23.3182 21.178 23.574 22.1117L19.2982 26.3492L15.0225 22.1117C15.2689 21.1687 15.8215 20.3329 16.5946 19.734C17.3677 19.135 18.3181 18.8065 19.2982 18.7992V18.8492ZM14.8716 42.5992V38.0992L18.091 41.2992V44.8742L14.8716 42.5992ZM20.5055 44.8867V41.2992L23.7249 38.0992V42.5867L20.5055 44.8867Z" fill="white"/>
</g>
</svg>
