<svg width="184" height="74" viewBox="0 0 184 74" fill="none" xmlns="http://www.w3.org/2000/svg">
<g opacity="0.4">
<g clip-path="url(#clip0_183_5260)">
<path d="M58.8594 45.1385H70.8114V41.5385H63.1074V27.9785H58.8594V45.1385Z" fill="white"/>
<path d="M77.8918 42.7377C76.1878 42.7377 75.2998 41.2497 75.2998 39.0177C75.2998 36.7857 76.1878 35.2737 77.8918 35.2737C79.5958 35.2737 80.5078 36.7857 80.5078 39.0177C80.5078 41.2497 79.5958 42.7377 77.8918 42.7377ZM77.9158 45.5217C81.8758 45.5217 84.4678 42.7137 84.4678 39.0177C84.4678 35.3217 81.8758 32.5137 77.9158 32.5137C73.9798 32.5137 71.3398 35.3217 71.3398 39.0177C71.3398 42.7137 73.9798 45.5217 77.9158 45.5217Z" fill="white"/>
<path d="M91.3226 49.3862C93.1466 49.3862 94.7546 48.9782 95.8346 48.0182C96.8186 47.1302 97.4666 45.7862 97.4666 43.9382V32.8502H93.7226V34.1702H93.6746C92.9546 33.1382 91.8506 32.4902 90.2186 32.4902C87.1706 32.4902 85.0586 35.0342 85.0586 38.6342C85.0586 42.4022 87.6266 44.4662 90.3866 44.4662C91.8746 44.4662 92.8106 43.8662 93.5306 43.0502H93.6266V44.2742C93.6266 45.7622 92.9306 46.6262 91.2746 46.6262C89.9786 46.6262 89.3306 46.0742 89.1146 45.4262H85.3226C85.7066 47.9942 87.9386 49.3862 91.3226 49.3862ZM91.2986 41.5622C89.8346 41.5622 88.8746 40.3622 88.8746 38.5142C88.8746 36.6422 89.8346 35.4422 91.2986 35.4422C92.9306 35.4422 93.7946 36.8342 93.7946 38.4902C93.7946 40.2182 93.0026 41.5622 91.2986 41.5622Z" fill="white"/>
<path d="M105.165 42.7377C103.461 42.7377 102.573 41.2497 102.573 39.0177C102.573 36.7857 103.461 35.2737 105.165 35.2737C106.869 35.2737 107.781 36.7857 107.781 39.0177C107.781 41.2497 106.869 42.7377 105.165 42.7377ZM105.189 45.5217C109.149 45.5217 111.741 42.7137 111.741 39.0177C111.741 35.3217 109.149 32.5137 105.189 32.5137C101.253 32.5137 98.6133 35.3217 98.6133 39.0177C98.6133 42.7137 101.253 45.5217 105.189 45.5217Z" fill="white"/>
<path d="M112.883 45.1385H116.795V32.8505H112.883V45.1385ZM112.883 31.1465H116.795V27.9785H112.883V31.1465Z" fill="white"/>
<path d="M118.492 49.1942H122.404V43.8662H122.452C123.22 44.8982 124.348 45.5222 125.932 45.5222C129.148 45.5222 131.284 42.9782 131.284 38.9942C131.284 35.2982 129.292 32.4902 126.028 32.4902C124.348 32.4902 123.148 33.2342 122.308 34.3382H122.236V32.8502H118.492V49.1942ZM124.924 42.4982C123.244 42.4982 122.284 41.1302 122.284 39.1382C122.284 37.1462 123.148 35.6342 124.852 35.6342C126.532 35.6342 127.324 37.0262 127.324 39.1382C127.324 41.2262 126.412 42.4982 124.924 42.4982Z" fill="white"/>
<path d="M137.656 45.5222C140.872 45.5222 143.248 44.1302 143.248 41.4422C143.248 38.2982 140.704 37.7462 138.544 37.3862C136.984 37.0982 135.592 36.9782 135.592 36.1142C135.592 35.3462 136.336 34.9862 137.296 34.9862C138.376 34.9862 139.12 35.3222 139.264 36.4262H142.864C142.672 34.0022 140.8 32.4902 137.32 32.4902C134.416 32.4902 132.016 33.8342 132.016 36.4262C132.016 39.3062 134.296 39.8822 136.432 40.2422C138.064 40.5302 139.552 40.6502 139.552 41.7542C139.552 42.5462 138.808 42.9782 137.632 42.9782C136.336 42.9782 135.52 42.3782 135.376 41.1542H131.68C131.8 43.8662 134.056 45.5222 137.656 45.5222Z" fill="white"/>
<path d="M148.562 45.4976C150.266 45.4976 151.346 44.8256 152.234 43.6256H152.306V45.1376H156.05V32.8496H152.138V39.7136C152.138 41.1776 151.322 42.1856 149.978 42.1856C148.73 42.1856 148.13 41.4416 148.13 40.0976V32.8496H144.242V40.9136C144.242 43.6496 145.73 45.4976 148.562 45.4976Z" fill="white"/>
<path d="M157.75 45.1382H161.662V38.2502C161.662 36.7862 162.382 35.7542 163.606 35.7542C164.782 35.7542 165.334 36.5222 165.334 37.8422V45.1382H169.246V38.2502C169.246 36.7862 169.942 35.7542 171.19 35.7542C172.366 35.7542 172.918 36.5222 172.918 37.8422V45.1382H176.83V37.1462C176.83 34.3862 175.438 32.4902 172.654 32.4902C171.07 32.4902 169.75 33.1622 168.79 34.6502H168.742C168.118 33.3302 166.894 32.4902 165.286 32.4902C163.51 32.4902 162.334 33.3302 161.566 34.6022H161.494V32.8502H157.75V45.1382Z" fill="white"/>
<path fill-rule="evenodd" clip-rule="evenodd" d="M27.6836 57.1386C38.7293 57.1386 47.6836 48.1843 47.6836 37.1386C47.6836 26.093 38.7293 17.1387 27.6836 17.1387C16.6379 17.1387 7.68359 26.093 7.68359 37.1386C7.68359 48.1843 16.6379 57.1386 27.6836 57.1386ZM33.9229 26.4555C34.2266 25.3767 33.1797 24.7388 32.2236 25.42L18.8767 34.9282C17.8398 35.6669 18.0029 37.1386 19.1217 37.1386H22.6363V37.1114H29.4861L23.9048 39.0807L21.4443 47.8218C21.1406 48.9006 22.1874 49.5385 23.1436 48.8573L36.4905 39.3491C37.5274 38.6104 37.3642 37.1386 36.2455 37.1386H30.9157L33.9229 26.4555Z" fill="white"/>
</g>
</g>
<defs>
<clipPath id="clip0_183_5260">
<rect width="170" height="41" fill="white" transform="translate(7 17)"/>
</clipPath>
</defs>
</svg>
