<svg width="184" height="74" viewBox="0 0 184 74" fill="none" xmlns="http://www.w3.org/2000/svg">
<g opacity="0.4">
<path d="M91.629 45.8208H85.4311V29.2511H91.629V45.8208ZM86.0364 45.2155H91.0237V29.8564H86.0364V45.2155ZM100.253 45.8208H94.1796V29.2511H106.868C108.686 29.1039 110.496 29.6143 111.969 30.6892C112.604 31.2695 113.095 31.9884 113.406 32.7898C113.716 33.5913 113.838 34.4538 113.76 35.3098C113.85 36.789 113.38 38.248 112.442 39.3953C111.332 40.6688 109.484 41.3249 106.952 41.3479C106.314 41.3649 101.534 41.3479 100.256 41.3479L100.253 45.8208ZM94.7812 45.2155H99.6475V40.7366H99.9514C100.013 40.7366 106.219 40.756 106.937 40.7366C109.297 40.716 110.993 40.1313 111.984 38.9898C112.819 37.9517 113.234 36.6379 113.146 35.3086C113.221 34.5416 113.117 33.7677 112.844 33.047C112.571 32.3263 112.136 31.6782 111.572 31.1529C110.206 30.1725 108.535 29.7123 106.86 29.8552H94.7848L94.7812 45.2155ZM105.583 37.6256H99.6064V33.1151H105.623C106.049 33.0562 106.484 33.106 106.886 33.2598C107.288 33.4137 107.644 33.6666 107.923 33.9952C108.175 34.4152 108.294 34.9018 108.264 35.3909C108.287 35.845 108.189 36.297 107.98 36.7007C107.693 37.0468 107.321 37.3132 106.901 37.4743C106.482 37.6354 106.028 37.6858 105.583 37.6207V37.6256ZM100.212 37.0203H105.583C106.575 37.0203 107.19 36.8133 107.463 36.3872C107.613 36.0775 107.681 35.7344 107.66 35.3909C107.686 35.0303 107.608 34.6696 107.435 34.3523L107.428 34.3414C107.139 33.9177 106.567 33.7204 105.623 33.7204H100.212V37.0203ZM124.806 46.0653C119.371 46.0653 116.126 44.7156 114.89 41.9399C114.688 41.4037 114.551 40.8453 114.481 40.2766L114.428 39.928H120.895L120.937 40.1822C120.987 40.4403 121.097 40.6832 121.257 40.8916C121.512 41.2002 122.364 41.7183 125.192 41.7183C128.591 41.7183 128.591 41.1216 128.591 40.8008C128.591 40.2597 128.198 40.0744 125.426 39.7791L124.899 39.7294C123.856 39.6314 122.536 39.5067 121.933 39.4547C116.849 38.9947 114.579 37.4149 114.579 34.3341C114.579 31.0984 118.442 29.0078 124.421 29.0078C129.298 29.0078 132.441 30.2934 133.759 32.8319C134.071 33.4223 134.282 34.0617 134.38 34.7227L134.422 35.0629H127.948L127.922 34.7893C127.896 34.5755 127.806 34.3749 127.66 34.2155C127.418 33.8911 126.653 33.3548 124.278 33.3548C121.362 33.3548 120.96 33.7277 120.96 34.1295C120.96 34.6658 121.881 34.8559 124.834 35.1718C126.065 35.2723 128.044 35.4757 128.722 35.558C132.984 36.0204 134.886 37.5614 134.886 40.5562C134.887 43.0681 133.138 46.0653 124.806 46.0653ZM115.135 40.5332C115.196 40.9325 115.3 41.3237 115.446 41.7002C116.572 44.229 119.635 45.4601 124.806 45.4601C129.13 45.4601 134.286 44.6127 134.286 40.5562C134.286 37.9015 132.603 36.5869 128.658 36.1596C127.98 36.0773 126.013 35.8751 124.784 35.7734C121.637 35.4321 120.357 35.2505 120.357 34.1295C120.357 32.9699 121.736 32.7495 124.281 32.7495C126.291 32.7495 127.59 33.1127 128.141 33.8451C128.291 34.0255 128.405 34.2336 128.475 34.4576H133.721C133.616 33.9894 133.449 33.5372 133.225 33.1127C132.015 30.7897 129.057 29.6131 124.423 29.6131C118.813 29.6131 115.187 31.4664 115.187 34.3341C115.187 37.0699 117.222 38.4209 121.989 38.8518C122.594 38.9039 123.913 39.0286 124.958 39.1278L125.489 39.1774C128.063 39.4486 129.199 39.6181 129.199 40.8008C129.199 42.0742 127.731 42.3236 125.194 42.3236C122.848 42.3236 121.367 41.9713 120.794 41.2777C120.618 41.0565 120.485 40.8039 120.402 40.5332H115.135ZM146.386 46.0448C140.067 46.0448 136.581 43.4893 136.581 38.8482V29.2511H142.696V38.8482C142.696 40.44 144.121 41.3528 146.604 41.3528C148.976 41.3528 150.45 40.4001 150.45 38.8688V29.2511H156.502V39.3566C156.508 43.6068 152.817 46.0448 146.382 46.0448H146.386ZM137.186 29.8564V38.8482C137.186 44.5837 142.946 45.4395 146.386 45.4395C149.942 45.4395 155.907 44.649 155.907 39.3566V29.8564H151.065V38.8688C151.065 40.7451 149.317 41.958 146.614 41.958C143.788 41.958 142.101 40.7959 142.101 38.8482V29.8564H137.186ZM182.151 45.8208H176.379V38.3398L173.106 45.8208H168.071L164.832 38.3543V45.8208H159.04V29.2511H166.659L170.617 38.387L174.767 29.2511H182.158L182.151 45.8208ZM176.984 45.2155H181.546V29.8564H175.152L170.598 39.8783L166.257 29.8564H159.64V45.2155H164.222V35.4418L168.459 45.2192H172.696L176.977 35.4563L176.984 45.2155ZM7.32914 29.5538H1.81641V45.5182H17.0497V41.268H7.32914V29.5538ZM28.1768 29.1906C21.14 29.1906 17.4395 32.5256 17.4395 37.4222C17.4395 42.9543 21.324 45.7603 28.1768 45.7603C35.7208 45.7603 38.8936 42.5064 38.8936 37.4222C38.8936 32.2593 35.3141 29.1882 28.1768 29.1882V29.1906ZM28.1562 33.3391C28.6353 33.3368 29.114 33.3647 29.5895 33.4226L23.4267 39.5854C23.1351 38.9258 22.9929 38.2098 23.0103 37.4888C23.0103 34.9842 24.2717 33.3367 28.1562 33.3367V33.3391ZM28.1768 41.6772C27.7153 41.6792 27.254 41.6533 26.7956 41.5997L32.9693 35.426C33.25 36.0747 33.3844 36.7774 33.3627 37.4839C33.3627 39.9207 32.2006 41.6748 28.1768 41.6748V41.6772ZM49.8162 39.4982H55.4899C55.4064 39.892 55.2323 40.2609 54.9815 40.5756C53.8052 41.5339 52.3041 42.0002 50.7919 41.8769C50.0307 41.9584 49.261 41.8752 48.5349 41.6331C47.8087 41.3911 47.1429 40.9958 46.5829 40.4739C46.0092 39.6325 45.7367 38.6219 45.8094 37.6062C45.7165 36.5418 46.0128 35.4799 46.6434 34.6174C47.4363 33.7216 48.7788 33.3354 50.7519 33.3354C52.0074 33.2315 53.2612 33.5539 54.3109 34.2506C54.6417 34.5134 54.889 34.8667 55.0227 35.2674H60.2848C60.2466 34.6071 60.0878 33.9593 59.8164 33.356C58.5562 30.7933 55.6267 29.2681 50.6454 29.2681C46.3129 29.2681 43.4052 30.59 41.7989 32.5837C40.738 34.0235 40.1934 35.7788 40.253 37.5662C40.1844 39.3941 40.715 41.1943 41.7638 42.6928C43.3508 44.7507 46.1774 45.7627 49.5741 45.7627C51.8323 45.9202 54.0752 45.2877 55.9185 43.9735L56.0613 45.5182H60.4325V36.0616H49.8162V39.4982ZM72.8392 29.187C65.8036 29.187 62.1018 32.522 62.1018 37.4185C62.1018 42.9507 65.9852 45.7567 72.8392 45.7567C80.3844 45.7567 83.5572 42.5028 83.5572 37.4185C83.5572 32.2593 79.9777 29.1882 72.8392 29.1882V29.187ZM72.8198 33.3354C73.2862 33.3341 73.7523 33.3607 74.2156 33.4153L68.077 39.5575C67.7944 38.9052 67.6569 38.1995 67.6739 37.4888C67.669 34.9842 68.9352 33.3354 72.8198 33.3354ZM72.8392 41.6736C72.3654 41.6756 71.892 41.648 71.4217 41.5912L77.6159 35.3958C77.9073 36.0531 78.0468 36.7677 78.0239 37.4863C78.0263 39.9207 76.869 41.6748 72.8392 41.6748V41.6736Z" fill="white"/>
</g>
</svg>
