<svg width="184" height="74" viewBox="0 0 184 74" fill="none" xmlns="http://www.w3.org/2000/svg">
<path d="M31.315 33.2074C36.1157 30.9114 39.8729 27.0152 42.0297 22.1448C40.6382 20.6837 38.8292 19.6401 36.8811 19.0139L35.8374 18.666C35.7679 18.8052 35.6983 19.0139 35.6983 19.1531C34.0285 23.8842 30.6192 27.7109 26.0272 29.8678C22.8267 31.3985 20.4611 34.1815 19.3479 37.5212L19 38.5648C19.1392 38.6344 19.3479 38.704 19.487 38.704C20.809 39.191 22.1309 39.8172 23.3833 40.5825C25.1227 37.4516 27.9058 34.8077 31.315 33.2074Z" fill="white"/>
<path opacity="0.8" d="M51.4912 33.4863C48.9168 37.3826 45.3685 40.5135 40.9852 42.6008C37.4368 44.2706 34.7233 47.4016 33.4709 51.1587L33.123 52.3415C34.445 53.5243 36.0452 54.4288 37.7846 54.9854L38.8283 55.3333C38.8979 55.1941 38.9674 54.9854 38.9674 54.8462C40.6373 50.115 44.0465 46.2884 48.6385 44.1315C51.839 42.6008 54.2742 39.8178 55.3178 36.4781L55.6657 35.4345C54.2046 35.017 52.8131 34.3212 51.4912 33.4863Z" fill="white"/>
<path opacity="0.9" d="M30.3416 48.7226C32.081 44.548 35.2815 41.1388 39.3865 39.1907C43.1436 37.3817 46.2745 34.5986 48.4314 31.1894C46.8311 29.6587 45.5092 27.9193 44.5351 25.832C41.9608 30.5632 37.9254 34.3899 32.9855 36.7555C30.1329 38.0775 27.8368 40.3735 26.4453 43.1565C27.976 44.6176 29.2284 46.4266 30.2024 48.4443C30.2024 48.4443 30.272 48.5835 30.3416 48.7226Z" fill="white"/>
<path d="M63.959 45.3328H75.684V42.0828H67.734V27.8328H63.959V45.3328Z" fill="white"/>
<path d="M87.9338 32.7328H84.4338V39.6328C84.4338 41.2328 83.3588 42.4328 81.8338 42.4328C80.4088 42.4328 79.4088 41.3328 79.4088 39.8078V32.7328H75.9338V40.5828C75.9338 43.4578 77.7838 45.5328 80.6088 45.5328C82.3338 45.5328 83.7338 44.7828 84.4338 43.5828V45.3328H87.9338V32.7328Z" fill="white"/>
<path d="M89.234 45.3328H92.734V38.1828C92.734 36.5578 93.659 35.4828 95.109 35.4828C96.459 35.4828 97.309 36.5578 97.309 38.1828V45.3328H100.809V38.1828C100.809 36.5578 101.734 35.4828 103.184 35.4828C104.534 35.4828 105.409 36.5578 105.409 38.1828V45.3328H108.884V37.0828C108.884 34.5578 107.109 32.5328 104.359 32.5328C102.334 32.5328 100.759 33.6078 100.159 34.8328C99.559 33.3328 98.284 32.5328 96.309 32.5328C94.609 32.5328 93.409 33.3578 92.734 34.5078V32.7328H89.234V45.3328Z" fill="white"/>
<path d="M110.076 27.2578V30.9328H113.776V27.2578H110.076ZM110.176 45.3328H113.676V32.7328H110.176V45.3328Z" fill="white"/>
<path d="M114.981 45.3328H118.481V38.4328C118.481 36.8078 119.556 35.6328 121.081 35.6328C122.531 35.6328 123.506 36.7328 123.506 38.2578V45.3328H127.006V37.4828C127.006 34.5828 125.156 32.5328 122.306 32.5328C120.581 32.5328 119.181 33.2578 118.481 34.4828V32.7328H114.981V45.3328Z" fill="white"/>
<path d="M134.306 45.5328C138.181 45.5328 140.956 42.7828 140.956 39.0328C140.956 35.2828 138.181 32.5328 134.306 32.5328C130.431 32.5328 127.656 35.2828 127.656 39.0328C127.656 42.7828 130.431 45.5328 134.306 45.5328ZM134.306 42.5328C132.431 42.5328 131.156 41.1078 131.156 39.0328C131.156 36.9328 132.431 35.5078 134.306 35.5078C136.181 35.5078 137.456 36.9328 137.456 39.0328C137.456 41.1078 136.181 42.5328 134.306 42.5328Z" fill="white"/>
<path d="M153.632 32.7328H150.132V39.6328C150.132 41.2328 149.057 42.4328 147.532 42.4328C146.107 42.4328 145.107 41.3328 145.107 39.8078V32.7328H141.632V40.5828C141.632 43.4578 143.482 45.5328 146.307 45.5328C148.032 45.5328 149.432 44.7828 150.132 43.5828V45.3328H153.632V32.7328Z" fill="white"/>
<path d="M159.532 45.5328C162.482 45.5328 164.432 43.9578 164.432 41.5578C164.432 35.8578 157.532 38.7828 157.532 36.2078C157.532 35.4078 158.207 34.9828 159.182 34.9828C160.132 34.9828 161.107 35.5578 161.257 36.6328H164.282C164.157 34.1578 162.107 32.5328 159.082 32.5328C156.507 32.5328 154.582 34.1078 154.582 36.3328C154.582 41.6328 161.357 39.1078 161.357 41.6828C161.357 42.3828 160.607 42.9078 159.532 42.9078C158.232 42.9078 157.357 42.2078 157.232 41.0828H154.232C154.357 43.8078 156.457 45.5328 159.532 45.5328Z" fill="white"/>
</svg>
